<svg width="234" height="19" viewBox="0 0 234 19" fill="none" xmlns="http://www.w3.org/2000/svg">
<g clip-path="url(#clip0_191_2020)">
<path d="M9.59389 4.2169L10.4631 7.43633L9.86754 7.5973C9.40609 6.87829 8.88025 6.27197 8.29002 5.77832C7.53882 5.1559 6.81445 4.84469 6.11691 4.84469V13.9879C6.11691 14.5459 6.22959 14.9322 6.45495 15.1469C6.68031 15.3615 7.0881 15.4688 7.67833 15.4688V16H1.91556V15.4688C2.49506 15.4688 2.89748 15.3668 3.12284 15.1629C3.35893 14.9483 3.47698 14.5566 3.47698 13.9879V4.84469C2.72578 4.93054 2.01214 5.24712 1.33606 5.79442C0.778028 6.24514 0.252188 6.8461 -0.241457 7.5973L-0.837051 7.43633L-0.0482914 4.2169H9.59389ZM19.7456 9.57724V6.22904C19.7456 5.67101 19.633 5.28468 19.4076 5.07005C19.1822 4.85542 18.7745 4.74811 18.1842 4.74811V4.2169H23.947V4.74811C23.3675 4.74811 22.9597 4.85542 22.7236 5.07005C22.4983 5.27395 22.3856 5.66028 22.3856 6.22904V13.9879C22.3856 14.5459 22.4983 14.9322 22.7236 15.1469C22.949 15.3615 23.3568 15.4688 23.947 15.4688V16H18.1842V15.4688C18.7637 15.4688 19.1661 15.3668 19.3915 15.1629C19.6276 14.9483 19.7456 14.5566 19.7456 13.9879V10.3338H15.4316V13.9879C15.4316 14.5459 15.5443 14.9322 15.7697 15.1469C15.995 15.3615 16.4028 15.4688 16.993 15.4688V16H11.2303V15.4688C11.8098 15.4688 12.2122 15.3668 12.4375 15.1629C12.6736 14.9483 12.7917 14.5566 12.7917 13.9879V6.22904C12.7917 5.67101 12.679 5.28468 12.4536 5.07005C12.2283 4.85542 11.8205 4.74811 11.2303 4.74811V4.2169H16.993V4.74811C16.4135 4.74811 16.0057 4.85542 15.7697 5.07005C15.5443 5.27395 15.4316 5.66028 15.4316 6.22904V9.57724H19.7456ZM25.9121 15.4688C26.4916 15.4688 26.894 15.3668 27.1194 15.1629C27.3555 14.9483 27.4735 14.5566 27.4735 13.9879V6.22904C27.4735 5.67101 27.3608 5.28468 27.1355 5.07005C26.9101 4.85542 26.5023 4.74811 25.9121 4.74811V4.2169H35.6187L36.6328 7.22706L36.1338 7.43633C35.5543 6.68513 34.8836 6.0788 34.1216 5.61735C33.2739 5.10224 32.4153 4.84469 31.5461 4.84469C30.8808 4.84469 30.4622 4.97347 30.2905 5.23102C30.1725 5.40272 30.1135 5.83198 30.1135 6.51879V9.65773H30.4354C31.2832 9.65773 31.8949 9.54505 32.2705 9.31969C32.689 9.06214 33.0324 8.54166 33.3007 7.75827H33.9285V12.4103H33.3007C33.0861 11.6269 32.7695 11.1011 32.351 10.8328C31.9324 10.5538 31.3046 10.4143 30.4676 10.4143H30.1135V13.8108C30.1135 14.3688 30.1725 14.7444 30.2905 14.9376C30.4622 15.2273 30.8164 15.3722 31.3529 15.3722C32.308 15.3722 33.2417 15.1254 34.1538 14.6317C34.9694 14.1918 35.7153 13.5747 36.3913 12.7806L36.826 13.0059L35.6187 16H25.9121V15.4688ZM54.7925 13.4406C55.0286 14.2132 55.2164 14.6961 55.3559 14.8893C55.6349 15.2756 56.1017 15.4688 56.7563 15.4688V16H51.1062V15.4688C51.5999 15.4688 51.9326 15.4151 52.1043 15.3078C52.2867 15.1898 52.3779 15.002 52.3779 14.7444C52.3779 14.5835 52.3672 14.4493 52.3457 14.342C52.3243 14.2347 52.2706 14.0576 52.1848 13.8108L51.6053 11.9113H47.5005L47.1464 12.9254C47.0605 13.1615 46.9854 13.3976 46.921 13.6337C46.8566 13.8698 46.8244 14.0844 46.8244 14.2776C46.8244 14.6639 46.9639 14.9591 47.2429 15.1629C47.5327 15.3668 47.8761 15.4688 48.2732 15.4688V16H43.9913V15.4688C44.6674 15.2756 45.1771 14.9644 45.5205 14.5352C45.7566 14.2454 46.0196 13.7088 46.3093 12.9254L49.4482 4.55494L51.7984 3.79838L54.7925 13.4406ZM49.738 5.98758L47.8224 11.1548H51.3477L49.738 5.98758ZM57.6003 15.4688C58.1798 15.4688 58.5822 15.3668 58.8076 15.1629C59.0437 14.9483 59.1617 14.5566 59.1617 13.9879V6.22904C59.1617 5.67101 59.0491 5.28468 58.8237 5.07005C58.5983 4.85542 58.1905 4.74811 57.6003 4.74811V4.2169H63.3631V4.74811C62.7836 4.74811 62.3758 4.85542 62.1397 5.07005C61.9143 5.27395 61.8017 5.66028 61.8017 6.22904V13.9879C61.8017 14.5459 61.85 14.8947 61.9465 15.0342C62.0968 15.2595 62.4509 15.3722 63.0089 15.3722C63.9318 15.3722 64.8387 15.0986 65.7294 14.5513C66.4591 14.1005 67.1781 13.462 67.8864 12.6357L68.2888 12.7967L67.2908 16H57.6003V15.4688ZM68.9795 15.4688C69.559 15.4688 69.9614 15.3668 70.1868 15.1629C70.4228 14.9483 70.5409 14.5566 70.5409 13.9879V6.22904C70.5409 5.67101 70.4282 5.28468 70.2029 5.07005C69.9775 4.85542 69.5697 4.74811 68.9795 4.74811V4.2169H78.686L79.7002 7.22706L79.2012 7.43633C78.6217 6.68513 77.9509 6.0788 77.189 5.61735C76.3412 5.10224 75.4827 4.84469 74.6135 4.84469C73.9481 4.84469 73.5296 4.97347 73.3579 5.23102C73.2398 5.40272 73.1808 5.83198 73.1808 6.51879V9.65773H73.5028C74.3505 9.65773 74.9622 9.54505 75.3378 9.31969C75.7564 9.06214 76.0998 8.54166 76.3681 7.75827H76.9958V12.4103H76.3681C76.1534 11.6269 75.8369 11.1011 75.4183 10.8328C74.9998 10.5538 74.372 10.4143 73.535 10.4143H73.1808V13.8108C73.1808 14.3688 73.2398 14.7444 73.3579 14.9376C73.5296 15.2273 73.8837 15.3722 74.4203 15.3722C75.3754 15.3722 76.309 15.1254 77.2212 14.6317C78.0368 14.1918 78.7826 13.5747 79.4587 12.7806L79.8933 13.0059L78.686 16H68.9795V15.4688ZM86.0912 4.2169V4.74811C85.6727 4.74811 85.4044 4.79103 85.2864 4.87688C85.1683 4.952 85.1093 5.07541 85.1093 5.24712C85.1093 5.35443 85.1361 5.46711 85.1898 5.58516C85.2112 5.61735 85.2756 5.7193 85.383 5.891L85.56 6.18075L87.0892 8.43435L88.5541 6.4866C88.6829 6.31489 88.7848 6.16465 88.8599 6.03588C88.978 5.83198 89.037 5.66028 89.037 5.52077C89.037 5.29541 88.9619 5.11834 88.8116 4.98956C88.6185 4.82859 88.3019 4.74811 87.8619 4.74811V4.2169H92.0955V4.74811C91.5803 4.74811 91.1404 4.86615 90.7755 5.10224C90.4857 5.29541 90.1584 5.63345 89.7936 6.11636L87.54 9.11043L90.5984 13.5049C91.0921 14.2132 91.4086 14.6425 91.5482 14.7927C91.9774 15.2434 92.4389 15.4688 92.9325 15.4688V16H87.2341V15.4688C87.6312 15.4259 87.9048 15.3615 88.0551 15.2756C88.216 15.1898 88.2965 15.061 88.2965 14.8893C88.2965 14.7605 88.2482 14.6103 88.1517 14.4386C88.1087 14.3635 88.0175 14.2239 87.878 14.0201L85.9303 11.187L84.3205 13.2474C84.1381 13.4942 83.9986 13.6927 83.902 13.843C83.7518 14.1005 83.6767 14.3313 83.6767 14.5352C83.6767 14.8356 83.8162 15.0664 84.0952 15.2273C84.3098 15.3454 84.5942 15.4259 84.9483 15.4688V16H80.586V15.4688C81.1548 15.3615 81.6538 15.1308 82.083 14.7766C82.3943 14.5191 82.7699 14.1005 83.2098 13.521L85.4634 10.5109L82.4533 6.10027C82.1206 5.63881 81.9382 5.39199 81.906 5.3598C81.584 5.00566 81.144 4.80176 80.586 4.74811V4.2169H86.0912ZM103.488 13.4406C103.724 14.2132 103.911 14.6961 104.051 14.8893C104.33 15.2756 104.797 15.4688 105.451 15.4688V16H99.8013V15.4688C100.295 15.4688 100.628 15.4151 100.799 15.3078C100.982 15.1898 101.073 15.002 101.073 14.7444C101.073 14.5835 101.062 14.4493 101.041 14.342C101.019 14.2347 100.966 14.0576 100.88 13.8108L100.3 11.9113H96.1956L95.8414 12.9254C95.7556 13.1615 95.6805 13.3976 95.6161 13.6337C95.5517 13.8698 95.5195 14.0844 95.5195 14.2776C95.5195 14.6639 95.659 14.9591 95.938 15.1629C96.2278 15.3668 96.5712 15.4688 96.9682 15.4688V16H92.6864V15.4688C93.3625 15.2756 93.8722 14.9644 94.2156 14.5352C94.4517 14.2454 94.7146 13.7088 95.0044 12.9254L98.1433 4.55494L100.494 3.79838L103.488 13.4406ZM98.4331 5.98758L96.5175 11.1548H100.043L98.4331 5.98758ZM115.954 12.4103V7.0339C115.954 6.26124 115.868 5.73003 115.696 5.44028C115.46 5.04322 114.972 4.81249 114.231 4.74811V4.2169H118.465V4.74811C117.757 4.86615 117.29 5.10224 117.064 5.45638C116.882 5.74613 116.791 6.27197 116.791 7.0339V16H115.326L108.855 6.84073V13.022C108.855 13.902 108.962 14.4869 109.177 14.7766C109.391 15.0664 109.912 15.2971 110.738 15.4688V16H106.183V15.4688C106.945 15.3507 107.438 15.1469 107.664 14.8571C107.9 14.5566 108.018 14.0254 108.018 13.2635V5.85881C107.546 5.26858 106.934 4.89835 106.183 4.74811V4.2169H110.271L115.954 12.4103ZM124.628 13.8108C124.628 14.4654 124.687 14.8732 124.805 15.0342C124.977 15.2595 125.39 15.3722 126.045 15.3722C127.161 15.3722 127.998 15.002 128.556 14.2615C129.221 13.3815 129.554 11.9006 129.554 9.8187C129.554 7.95143 129.216 6.6261 128.54 5.84271C127.96 5.17736 127.069 4.84469 125.867 4.84469C125.299 4.84469 124.939 4.96273 124.789 5.19883C124.682 5.37053 124.628 5.75149 124.628 6.34172V13.8108ZM120.427 15.4688C121.006 15.4688 121.409 15.3668 121.634 15.1629C121.87 14.9483 121.988 14.5566 121.988 13.9879V6.22904C121.988 5.67101 121.875 5.28468 121.65 5.07005C121.425 4.85542 121.017 4.74811 120.427 4.74811V4.2169H126.028C126.544 4.2169 127.026 4.24909 127.477 4.31348C127.928 4.37787 128.357 4.49055 128.765 4.65152C129.849 5.08078 130.707 5.75686 131.341 6.67976C132.017 7.66705 132.355 8.85287 132.355 10.2372C132.355 11.5035 132.017 12.625 131.341 13.6015C130.707 14.5244 129.876 15.1844 128.845 15.5815C128.438 15.7424 128.008 15.8551 127.558 15.9195C127.118 15.9732 126.608 16 126.028 16H120.427V15.4688ZM138.902 9.62554C140.179 9.62554 141.075 9.42164 141.59 9.01385C142.106 8.59532 142.363 7.9407 142.363 7.04999C142.363 6.2666 142.143 5.7032 141.703 5.3598C141.263 5.01639 140.598 4.84469 139.707 4.84469C139.213 4.84469 138.902 4.93591 138.773 5.11834C138.655 5.30077 138.596 5.64955 138.596 6.16465V9.62554H138.902ZM143.957 13.2796C144.365 14.0201 144.686 14.5191 144.923 14.7766C145.352 15.2381 145.872 15.4688 146.484 15.4688V16H142.508C142.422 15.8605 142.304 15.6405 142.154 15.34C142.004 15.0395 141.891 14.8088 141.816 14.6478L140.866 12.6357C140.426 11.6913 140.013 11.0582 139.627 10.7362C139.348 10.5001 139.004 10.3821 138.596 10.3821V13.9879C138.596 14.5459 138.709 14.9322 138.934 15.1469C139.16 15.3615 139.568 15.4688 140.158 15.4688V16H134.395V15.4688C134.975 15.4688 135.377 15.3668 135.602 15.1629C135.838 14.9483 135.956 14.5566 135.956 13.9879V6.22904C135.956 5.67101 135.844 5.28468 135.618 5.07005C135.393 4.85542 134.985 4.74811 134.395 4.74811V4.2169H141.317C142.487 4.2169 143.42 4.49592 144.118 5.05395C144.815 5.61199 145.164 6.33099 145.164 7.21097C145.164 8.02655 144.842 8.6919 144.198 9.20701C143.651 9.647 142.937 9.94748 142.057 10.1085C142.272 10.248 142.47 10.4626 142.653 10.7523C142.749 10.9026 142.894 11.1655 143.088 11.5411L143.957 13.2796ZM149.087 6.22904C149.087 5.67101 148.974 5.28468 148.749 5.07005C148.523 4.85542 148.115 4.74811 147.525 4.74811V4.2169H153.288V4.74811C152.708 4.74811 152.301 4.85542 152.065 5.07005C151.839 5.27395 151.727 5.66028 151.727 6.22904V13.9879C151.727 14.5459 151.839 14.9322 152.065 15.1469C152.29 15.3615 152.698 15.4688 153.288 15.4688V16H147.525V15.4688C148.105 15.4688 148.507 15.3668 148.732 15.1629C148.969 14.9483 149.087 14.5566 149.087 13.9879V6.22904ZM164.962 13.4406C165.198 14.2132 165.386 14.6961 165.525 14.8893C165.804 15.2756 166.271 15.4688 166.925 15.4688V16H161.275V15.4688C161.769 15.4688 162.102 15.4151 162.273 15.3078C162.456 15.1898 162.547 15.002 162.547 14.7444C162.547 14.5835 162.536 14.4493 162.515 14.342C162.493 14.2347 162.44 14.0576 162.354 13.8108L161.774 11.9113H157.67L157.315 12.9254C157.23 13.1615 157.155 13.3976 157.09 13.6337C157.026 13.8698 156.994 14.0844 156.994 14.2776C156.994 14.6639 157.133 14.9591 157.412 15.1629C157.702 15.3668 158.045 15.4688 158.442 15.4688V16H154.16V15.4688C154.837 15.2756 155.346 14.9644 155.69 14.5352C155.926 14.2454 156.189 13.7088 156.478 12.9254L159.617 4.55494L161.968 3.79838L164.962 13.4406ZM159.907 5.98758L157.992 11.1548H161.517L159.907 5.98758ZM175.932 6.22904C175.932 5.67101 175.82 5.28468 175.594 5.07005C175.369 4.85542 174.961 4.74811 174.371 4.74811V4.2169H180.134V4.74811C179.554 4.74811 179.146 4.85542 178.91 5.07005C178.685 5.27395 178.572 5.66028 178.572 6.22904V13.9879C178.572 14.5459 178.685 14.9322 178.91 15.1469C179.136 15.3615 179.543 15.4688 180.134 15.4688V16H174.371V15.4688C174.95 15.4688 175.353 15.3668 175.578 15.1629C175.814 14.9483 175.932 14.5566 175.932 13.9879V6.22904ZM191.872 12.4103V7.0339C191.872 6.26124 191.786 5.73003 191.614 5.44028C191.378 5.04322 190.89 4.81249 190.149 4.74811V4.2169H194.383V4.74811C193.675 4.86615 193.208 5.10224 192.982 5.45638C192.8 5.74613 192.709 6.27197 192.709 7.0339V16H191.244L184.773 6.84073V13.022C184.773 13.902 184.88 14.4869 185.095 14.7766C185.309 15.0664 185.83 15.2971 186.656 15.4688V16H182.101V15.4688C182.863 15.3507 183.356 15.1469 183.582 14.8571C183.818 14.5566 183.936 14.0254 183.936 13.2635V5.85881C183.464 5.26858 182.852 4.89835 182.101 4.74811V4.2169H186.189L191.872 12.4103ZM200.546 13.8108C200.546 14.4654 200.605 14.8732 200.723 15.0342C200.895 15.2595 201.308 15.3722 201.963 15.3722C203.079 15.3722 203.916 15.002 204.474 14.2615C205.139 13.3815 205.472 11.9006 205.472 9.8187C205.472 7.95143 205.134 6.6261 204.458 5.84271C203.878 5.17736 202.987 4.84469 201.786 4.84469C201.217 4.84469 200.857 4.96273 200.707 5.19883C200.6 5.37053 200.546 5.75149 200.546 6.34172V13.8108ZM196.345 15.4688C196.924 15.4688 197.327 15.3668 197.552 15.1629C197.788 14.9483 197.906 14.5566 197.906 13.9879V6.22904C197.906 5.67101 197.793 5.28468 197.568 5.07005C197.343 4.85542 196.935 4.74811 196.345 4.74811V4.2169H201.947C202.462 4.2169 202.945 4.24909 203.395 4.31348C203.846 4.37787 204.275 4.49055 204.683 4.65152C205.767 5.08078 206.625 5.75686 207.259 6.67976C207.935 7.66705 208.273 8.85287 208.273 10.2372C208.273 11.5035 207.935 12.625 207.259 13.6015C206.625 14.5244 205.794 15.1844 204.764 15.5815C204.356 15.7424 203.926 15.8551 203.476 15.9195C203.036 15.9732 202.526 16 201.947 16H196.345V15.4688ZM210.49 15.4688C211.07 15.4688 211.472 15.3668 211.697 15.1629C211.934 14.9483 212.052 14.5566 212.052 13.9879V6.22904C212.052 5.67101 211.939 5.28468 211.714 5.07005C211.488 4.85542 211.08 4.74811 210.49 4.74811V4.2169H220.197L221.211 7.22706L220.712 7.43633C220.132 6.68513 219.462 6.0788 218.7 5.61735C217.852 5.10224 216.993 4.84469 216.124 4.84469C215.459 4.84469 215.04 4.97347 214.869 5.23102C214.751 5.40272 214.692 5.83198 214.692 6.51879V9.65773H215.014C215.861 9.65773 216.473 9.54505 216.849 9.31969C217.267 9.06214 217.611 8.54166 217.879 7.75827H218.507V12.4103H217.879C217.664 11.6269 217.348 11.1011 216.929 10.8328C216.511 10.5538 215.883 10.4143 215.046 10.4143H214.692V13.8108C214.692 14.3688 214.751 14.7444 214.869 14.9376C215.04 15.2273 215.394 15.3722 215.931 15.3722C216.886 15.3722 217.82 15.1254 218.732 14.6317C219.548 14.1918 220.293 13.5747 220.969 12.7806L221.404 13.0059L220.197 16H210.49V15.4688ZM227.602 4.2169V4.74811C227.183 4.74811 226.915 4.79103 226.797 4.87688C226.679 4.952 226.62 5.07541 226.62 5.24712C226.62 5.35443 226.647 5.46711 226.701 5.58516C226.722 5.61735 226.786 5.7193 226.894 5.891L227.071 6.18075L228.6 8.43435L230.065 6.4866C230.194 6.31489 230.296 6.16465 230.371 6.03588C230.489 5.83198 230.548 5.66028 230.548 5.52077C230.548 5.29541 230.473 5.11834 230.322 4.98956C230.129 4.82859 229.813 4.74811 229.373 4.74811V4.2169H233.606V4.74811C233.091 4.74811 232.651 4.86615 232.286 5.10224C231.996 5.29541 231.669 5.63345 231.304 6.11636L229.051 9.11043L232.109 13.5049C232.603 14.2132 232.919 14.6425 233.059 14.7927C233.488 15.2434 233.95 15.4688 234.443 15.4688V16H228.745V15.4688C229.142 15.4259 229.416 15.3615 229.566 15.2756C229.727 15.1898 229.807 15.061 229.807 14.8893C229.807 14.7605 229.759 14.6103 229.662 14.4386C229.619 14.3635 229.528 14.2239 229.389 14.0201L227.441 11.187L225.831 13.2474C225.649 13.4942 225.509 13.6927 225.413 13.843C225.263 14.1005 225.187 14.3313 225.187 14.5352C225.187 14.8356 225.327 15.0664 225.606 15.2273C225.821 15.3454 226.105 15.4259 226.459 15.4688V16H222.097V15.4688C222.666 15.3615 223.165 15.1308 223.594 14.7766C223.905 14.5191 224.281 14.1005 224.721 13.521L226.974 10.5109L223.964 6.10027C223.631 5.63881 223.449 5.39199 223.417 5.3598C223.095 5.00566 222.655 4.80176 222.097 4.74811V4.2169H227.602Z" fill="black"/>
<path d="M9.59389 4.2169L9.8159 4.15696L9.76999 3.98694H9.59389V4.2169ZM10.4631 7.43633L10.5231 7.65832L10.7451 7.59834L10.6851 7.37638L10.4631 7.43633ZM9.86754 7.5973L9.67401 7.7215L9.76497 7.86323L9.92754 7.81929L9.86754 7.5973ZM8.29002 5.77832L8.43756 5.60192L8.43674 5.60125L8.29002 5.77832ZM6.11691 4.84469V4.61473H5.88695V4.84469H6.11691ZM7.67833 15.4688H7.90829V15.2388H7.67833V15.4688ZM7.67833 16V16.23H7.90829V16H7.67833ZM1.91556 16H1.6856V16.23H1.91556V16ZM1.91556 15.4688V15.2388H1.6856V15.4688H1.91556ZM3.12284 15.1629L3.27713 15.3335L3.27753 15.3331L3.12284 15.1629ZM3.47698 4.84469H3.70694V4.58695L3.45087 4.61622L3.47698 4.84469ZM1.33606 5.79442L1.48055 5.97331L1.48075 5.97315L1.33606 5.79442ZM-0.241457 7.5973L-0.301455 7.81929L-0.140719 7.86273L-0.049279 7.72359L-0.241457 7.5973ZM-0.837051 7.43633L-1.0604 7.38161L-1.11384 7.59973L-0.897049 7.65832L-0.837051 7.43633ZM-0.0482914 4.2169V3.98694H-0.228712L-0.271645 4.16218L-0.0482914 4.2169ZM9.37188 4.27684L10.2411 7.49627L10.6851 7.37638L9.8159 4.15696L9.37188 4.27684ZM10.4031 7.21433L9.80754 7.3753L9.92754 7.81929L10.5231 7.65832L10.4031 7.21433ZM10.0611 7.47309C9.5884 6.7366 9.04753 6.11208 8.43755 5.60193L8.14249 5.95472C8.71297 6.43185 9.22378 7.01998 9.67401 7.7215L10.0611 7.47309ZM8.43674 5.60125C7.66054 4.95811 6.88589 4.61473 6.11691 4.61473V5.07465C6.74301 5.07465 7.41711 5.35369 8.1433 5.9554L8.43674 5.60125ZM5.88695 4.84469V13.9879H6.34687V4.84469H5.88695ZM5.88695 13.9879C5.88695 14.5628 6.00037 15.0315 6.29636 15.3134L6.61354 14.9803C6.45881 14.833 6.34687 14.529 6.34687 13.9879H5.88695ZM6.29636 15.3134C6.58933 15.5924 7.07589 15.6988 7.67833 15.6988V15.2388C7.10032 15.2388 6.77129 15.1306 6.61354 14.9803L6.29636 15.3134ZM7.44837 15.4688V16H7.90829V15.4688H7.44837ZM7.67833 15.77H1.91556V16.23H7.67833V15.77ZM2.14552 16V15.4688H1.6856V16H2.14552ZM1.91556 15.6988C2.50677 15.6988 2.98493 15.5978 3.27713 15.3335L2.96856 14.9924C2.81004 15.1359 2.48334 15.2388 1.91556 15.2388V15.6988ZM3.27753 15.3331C3.5879 15.051 3.70694 14.5742 3.70694 13.9879H3.24702C3.24702 14.539 3.12997 14.8457 2.96816 14.9928L3.27753 15.3331ZM3.70694 13.9879V4.84469H3.24702V13.9879H3.70694ZM3.45087 4.61622C2.64998 4.70775 1.89621 5.0451 1.19137 5.61569L1.48075 5.97315C2.12807 5.44913 2.80158 5.15333 3.50309 5.07316L3.45087 4.61622ZM1.19157 5.61553C0.611014 6.08444 0.0699274 6.70472 -0.433635 7.47101L-0.049279 7.72359C0.434449 6.98748 0.945042 6.40584 1.48055 5.97331L1.19157 5.61553ZM-0.181459 7.3753L-0.777052 7.21433L-0.897049 7.65832L-0.301455 7.81929L-0.181459 7.3753ZM-0.613697 7.49105L0.175062 4.27162L-0.271645 4.16218L-1.0604 7.38161L-0.613697 7.49105ZM-0.0482914 4.44686H9.59389V3.98694H-0.0482914V4.44686ZM19.7456 9.57724V9.8072H19.9756V9.57724H19.7456ZM19.4076 5.07005L19.249 5.23657L19.249 5.23657L19.4076 5.07005ZM18.1842 4.74811H17.9543V4.97806H18.1842V4.74811ZM18.1842 4.2169V3.98694H17.9543V4.2169H18.1842ZM23.947 4.2169H24.177V3.98694H23.947V4.2169ZM23.947 4.74811V4.97806H24.177V4.74811H23.947ZM22.7236 5.07005L22.8779 5.24057L22.8783 5.2402L22.7236 5.07005ZM22.7236 15.1469L22.565 15.3134L22.565 15.3134L22.7236 15.1469ZM23.947 15.4688H24.177V15.2388H23.947V15.4688ZM23.947 16V16.23H24.177V16H23.947ZM18.1842 16H17.9543V16.23H18.1842V16ZM18.1842 15.4688V15.2388H17.9543V15.4688H18.1842ZM19.3915 15.1629L19.5458 15.3335L19.5462 15.3331L19.3915 15.1629ZM19.7456 10.3338H19.9756V10.1039H19.7456V10.3338ZM15.4316 10.3338V10.1039H15.2017V10.3338H15.4316ZM16.993 15.4688H17.223V15.2388H16.993V15.4688ZM16.993 16V16.23H17.223V16H16.993ZM11.2303 16H11.0003V16.23H11.2303V16ZM11.2303 15.4688V15.2388H11.0003V15.4688H11.2303ZM12.4375 15.1629L12.5918 15.3335L12.5922 15.3331L12.4375 15.1629ZM12.4536 5.07005L12.2951 5.23657L12.2951 5.23657L12.4536 5.07005ZM11.2303 4.74811H11.0003V4.97806H11.2303V4.74811ZM11.2303 4.2169V3.98694H11.0003V4.2169H11.2303ZM16.993 4.2169H17.223V3.98694H16.993V4.2169ZM16.993 4.74811V4.97806H17.223V4.74811H16.993ZM15.7697 5.07005L15.9239 5.24057L15.9243 5.2402L15.7697 5.07005ZM15.4316 9.57724H15.2017V9.8072H15.4316V9.57724ZM19.9756 9.57724V6.22904H19.5157V9.57724H19.9756ZM19.9756 6.22904C19.9756 5.65407 19.8622 5.18542 19.5662 4.90353L19.249 5.23657C19.4037 5.38394 19.5157 5.68794 19.5157 6.22904H19.9756ZM19.5662 4.90353C19.2732 4.62451 18.7867 4.51815 18.1842 4.51815V4.97806C18.7622 4.97806 19.0913 5.08633 19.249 5.23657L19.5662 4.90353ZM18.4142 4.74811V4.2169H17.9543V4.74811H18.4142ZM18.1842 4.44686H23.947V3.98694H18.1842V4.44686ZM23.717 4.2169V4.74811H24.177V4.2169H23.717ZM23.947 4.51815C23.3522 4.51815 22.8705 4.62572 22.5689 4.89989L22.8783 5.2402C23.0489 5.08512 23.3828 4.97806 23.947 4.97806V4.51815ZM22.5693 4.89953C22.2676 5.17252 22.1556 5.64684 22.1556 6.22904H22.6155C22.6155 5.67371 22.7289 5.37537 22.8779 5.24057L22.5693 4.89953ZM22.1556 6.22904V13.9879H22.6155V6.22904H22.1556ZM22.1556 13.9879C22.1556 14.5628 22.269 15.0315 22.565 15.3134L22.8822 14.9803C22.7275 14.833 22.6155 14.529 22.6155 13.9879H22.1556ZM22.565 15.3134C22.858 15.5924 23.3446 15.6988 23.947 15.6988V15.2388C23.369 15.2388 23.04 15.1306 22.8822 14.9803L22.565 15.3134ZM23.717 15.4688V16H24.177V15.4688H23.717ZM23.947 15.77H18.1842V16.23H23.947V15.77ZM18.4142 16V15.4688H17.9543V16H18.4142ZM18.1842 15.6988C18.7754 15.6988 19.2536 15.5978 19.5458 15.3335L19.2372 14.9924C19.0787 15.1359 18.752 15.2388 18.1842 15.2388V15.6988ZM19.5462 15.3331C19.8566 15.051 19.9756 14.5742 19.9756 13.9879H19.5157C19.5157 14.539 19.3986 14.8457 19.2368 14.9928L19.5462 15.3331ZM19.9756 13.9879V10.3338H19.5157V13.9879H19.9756ZM19.7456 10.1039H15.4316V10.5638H19.7456V10.1039ZM15.2017 10.3338V13.9879H15.6616V10.3338H15.2017ZM15.2017 13.9879C15.2017 14.5628 15.3151 15.0315 15.6111 15.3134L15.9282 14.9803C15.7735 14.833 15.6616 14.529 15.6616 13.9879H15.2017ZM15.6111 15.3134C15.904 15.5924 16.3906 15.6988 16.993 15.6988V15.2388C16.415 15.2388 16.086 15.1306 15.9282 14.9803L15.6111 15.3134ZM16.7631 15.4688V16H17.223V15.4688H16.7631ZM16.993 15.77H11.2303V16.23H16.993V15.77ZM11.4602 16V15.4688H11.0003V16H11.4602ZM11.2303 15.6988C11.8215 15.6988 12.2996 15.5978 12.5918 15.3335L12.2833 14.9924C12.1247 15.1359 11.798 15.2388 11.2303 15.2388V15.6988ZM12.5922 15.3331C12.9026 15.051 13.0216 14.5742 13.0216 13.9879H12.5617C12.5617 14.539 12.4447 14.8457 12.2829 14.9928L12.5922 15.3331ZM13.0216 13.9879V6.22904H12.5617V13.9879H13.0216ZM13.0216 6.22904C13.0216 5.65407 12.9082 5.18542 12.6122 4.90353L12.2951 5.23657C12.4498 5.38394 12.5617 5.68794 12.5617 6.22904H13.0216ZM12.6122 4.90353C12.3193 4.62451 11.8327 4.51815 11.2303 4.51815V4.97806C11.8083 4.97806 12.1373 5.08633 12.2951 5.23657L12.6122 4.90353ZM11.4602 4.74811V4.2169H11.0003V4.74811H11.4602ZM11.2303 4.44686H16.993V3.98694H11.2303V4.44686ZM16.7631 4.2169V4.74811H17.223V4.2169H16.7631ZM16.993 4.51815C16.3982 4.51815 15.9166 4.62572 15.615 4.89989L15.9243 5.2402C16.0949 5.08512 16.4289 4.97806 16.993 4.97806V4.51815ZM15.6154 4.89953C15.3136 5.17252 15.2017 5.64684 15.2017 6.22904H15.6616C15.6616 5.67371 15.7749 5.37537 15.9239 5.24057L15.6154 4.89953ZM15.2017 6.22904V9.57724H15.6616V6.22904H15.2017ZM15.4316 9.8072H19.7456V9.34729H15.4316V9.8072ZM25.9121 15.4688V15.2388H25.6821V15.4688H25.9121ZM27.1194 15.1629L27.2737 15.3335L27.2741 15.3331L27.1194 15.1629ZM27.1355 5.07005L26.9769 5.23657L26.9769 5.23657L27.1355 5.07005ZM25.9121 4.74811H25.6821V4.97806H25.9121V4.74811ZM25.9121 4.2169V3.98694H25.6821V4.2169H25.9121ZM35.6187 4.2169L35.8366 4.14348L35.7839 3.98694H35.6187V4.2169ZM36.6328 7.22706L36.7217 7.43913L36.919 7.35639L36.8507 7.15365L36.6328 7.22706ZM36.1338 7.43633L35.9517 7.57679L36.0597 7.71676L36.2227 7.64839L36.1338 7.43633ZM34.1216 5.61735L34.0022 5.81388L34.0025 5.81405L34.1216 5.61735ZM30.2905 5.23102L30.48 5.36131L30.4819 5.35858L30.2905 5.23102ZM30.1135 9.65773H29.8835V9.88769H30.1135V9.65773ZM32.2705 9.31969L32.3888 9.51689L32.391 9.51554L32.2705 9.31969ZM33.3007 7.75827V7.52831H33.1364L33.0831 7.68376L33.3007 7.75827ZM33.9285 7.75827H34.1584V7.52831H33.9285V7.75827ZM33.9285 12.4103V12.6403H34.1584V12.4103H33.9285ZM33.3007 12.4103L33.0789 12.4711L33.1253 12.6403H33.3007V12.4103ZM32.351 10.8328L32.2234 11.0242L32.2269 11.0264L32.351 10.8328ZM30.1135 10.4143V10.1843H29.8835V10.4143H30.1135ZM30.2905 14.9376L30.4884 14.8203L30.4867 14.8177L30.2905 14.9376ZM34.1538 14.6317L34.0447 14.4294L34.0444 14.4295L34.1538 14.6317ZM36.3913 12.7806L36.4972 12.5764L36.3348 12.4922L36.2162 12.6315L36.3913 12.7806ZM36.826 13.0059L37.0392 13.0919L37.1174 12.898L36.9318 12.8018L36.826 13.0059ZM35.6187 16V16.23H35.7739L35.8319 16.086L35.6187 16ZM25.9121 16H25.6821V16.23H25.9121V16ZM25.9121 15.6988C26.5033 15.6988 26.9815 15.5978 27.2737 15.3335L26.9651 14.9924C26.8066 15.1359 26.4799 15.2388 25.9121 15.2388V15.6988ZM27.2741 15.3331C27.5844 15.051 27.7035 14.5742 27.7035 13.9879H27.2436C27.2436 14.539 27.1265 14.8457 26.9647 14.9928L27.2741 15.3331ZM27.7035 13.9879V6.22904H27.2436V13.9879H27.7035ZM27.7035 6.22904C27.7035 5.65407 27.5901 5.18542 27.2941 4.90353L26.9769 5.23657C27.1316 5.38394 27.2436 5.68794 27.2436 6.22904H27.7035ZM27.2941 4.90353C27.0011 4.62451 26.5145 4.51815 25.9121 4.51815V4.97806C26.4901 4.97806 26.8191 5.08633 26.9769 5.23657L27.2941 4.90353ZM26.1421 4.74811V4.2169H25.6821V4.74811H26.1421ZM25.9121 4.44686H35.6187V3.98694H25.9121V4.44686ZM35.4007 4.29032L36.4149 7.30048L36.8507 7.15365L35.8366 4.14348L35.4007 4.29032ZM36.5439 7.015L36.0448 7.22426L36.2227 7.64839L36.7217 7.43913L36.5439 7.015ZM36.3159 7.29587C35.7202 6.52367 35.0285 5.89774 34.2408 5.42065L34.0025 5.81405C34.7386 6.25986 35.3884 6.84658 35.9517 7.57679L36.3159 7.29587ZM34.241 5.42082C33.3625 4.887 32.4631 4.61473 31.5461 4.61473V5.07465C32.3675 5.07465 33.1852 5.31748 34.0022 5.81388L34.241 5.42082ZM31.5461 4.61473C31.2011 4.61473 30.905 4.64782 30.6656 4.72148C30.4263 4.7951 30.2245 4.9155 30.0992 5.10346L30.4819 5.35858C30.5283 5.28899 30.6216 5.21622 30.8008 5.16106C30.9799 5.10595 31.2258 5.07465 31.5461 5.07465V4.61473ZM30.101 5.10074C30.0095 5.23388 29.9601 5.43065 29.9299 5.65041C29.8984 5.8796 29.8835 6.1702 29.8835 6.51879H30.3434C30.3434 6.18056 30.358 5.91313 30.3855 5.71306C30.4143 5.50357 30.4535 5.39986 30.48 5.3613L30.101 5.10074ZM29.8835 6.51879V9.65773H30.3434V6.51879H29.8835ZM30.1135 9.88769H30.4354V9.42777H30.1135V9.88769ZM30.4354 9.88769C31.2924 9.88769 31.9573 9.77579 32.3888 9.51688L32.1522 9.1225C31.8325 9.31431 31.2739 9.42777 30.4354 9.42777V9.88769ZM32.391 9.51554C32.877 9.21643 33.2435 8.63497 33.5182 7.83277L33.0831 7.68376C32.8213 8.44836 32.501 8.90784 32.1499 9.12384L32.391 9.51554ZM33.3007 7.98823H33.9285V7.52831H33.3007V7.98823ZM33.6985 7.75827V12.4103H34.1584V7.75827H33.6985ZM33.9285 12.1804H33.3007V12.6403H33.9285V12.1804ZM33.5225 12.3496C33.3018 11.544 32.9638 10.9525 32.4751 10.6392L32.2269 11.0264C32.5751 11.2497 32.8703 11.7099 33.0789 12.4711L33.5225 12.3496ZM32.4785 10.6415C32.0046 10.3256 31.3229 10.1843 30.4676 10.1843V10.6443C31.2864 10.6443 31.8602 10.782 32.2234 11.0242L32.4785 10.6415ZM30.4676 10.1843H30.1135V10.6443H30.4676V10.1843ZM29.8835 10.4143V13.8108H30.3434V10.4143H29.8835ZM29.8835 13.8108C29.8835 14.0968 29.8985 14.343 29.9306 14.5467C29.962 14.7468 30.0124 14.9234 30.0943 15.0575L30.4867 14.8177C30.4506 14.7586 30.4125 14.6508 30.3849 14.4753C30.3579 14.3034 30.3434 14.0828 30.3434 13.8108H29.8835ZM30.0927 15.0548C30.3264 15.4492 30.7859 15.6022 31.3529 15.6022V15.1423C30.8468 15.1423 30.598 15.0055 30.4884 14.8204L30.0927 15.0548ZM31.3529 15.6022C32.3495 15.6022 33.3205 15.3442 34.2633 14.834L34.0444 14.4295C33.1629 14.9066 32.2666 15.1423 31.3529 15.1423V15.6022ZM34.263 14.8341C35.1066 14.379 35.8742 13.7428 36.5664 12.9296L36.2162 12.6315C35.5563 13.4066 34.8322 14.0045 34.0447 14.4294L34.263 14.8341ZM36.2855 12.9847L36.7201 13.2101L36.9318 12.8018L36.4972 12.5764L36.2855 12.9847ZM36.6127 12.9199L35.4054 15.914L35.8319 16.086L37.0392 13.0919L36.6127 12.9199ZM35.6187 15.77H25.9121V16.23H35.6187V15.77ZM26.1421 16V15.4688H25.6821V16H26.1421ZM54.7925 13.4406L55.0124 13.3734L55.0121 13.3724L54.7925 13.4406ZM55.3559 14.8893L55.5423 14.7547L55.5423 14.7547L55.3559 14.8893ZM56.7563 15.4688H56.9863V15.2388H56.7563V15.4688ZM56.7563 16V16.23H56.9863V16H56.7563ZM51.1062 16H50.8763V16.23H51.1062V16ZM51.1062 15.4688V15.2388H50.8763V15.4688H51.1062ZM52.1043 15.3078L52.2262 15.5029L52.2292 15.5009L52.1043 15.3078ZM52.3457 14.342L52.5712 14.2969L52.5712 14.2969L52.3457 14.342ZM52.1848 13.8108L51.9646 13.8779L51.9676 13.8863L52.1848 13.8108ZM51.6053 11.9113L51.8252 11.8442L51.7755 11.6814H51.6053V11.9113ZM47.5005 11.9113V11.6814H47.3372L47.2834 11.8355L47.5005 11.9113ZM47.1464 12.9254L47.3625 13.004L47.3635 13.0013L47.1464 12.9254ZM46.921 13.6337L47.1429 13.6942L47.1429 13.6942L46.921 13.6337ZM47.2429 15.1629L47.1072 15.3486L47.1106 15.351L47.2429 15.1629ZM48.2732 15.4688H48.5031V15.2388H48.2732V15.4688ZM48.2732 16V16.23H48.5031V16H48.2732ZM43.9913 16H43.7614V16.23H43.9913V16ZM43.9913 15.4688L43.9281 15.2477L43.7614 15.2953V15.4688H43.9913ZM45.5205 14.5352L45.3423 14.3899L45.341 14.3915L45.5205 14.5352ZM46.3093 12.9254L46.094 12.8447L46.0936 12.8457L46.3093 12.9254ZM49.4482 4.55494L49.3778 4.33604L49.272 4.37011L49.2329 4.4742L49.4482 4.55494ZM51.7984 3.79838L52.018 3.73018L51.9491 3.50828L51.728 3.57948L51.7984 3.79838ZM49.738 5.98758L49.9575 5.91919L49.7569 5.27507L49.5224 5.90765L49.738 5.98758ZM47.8224 11.1548L47.6068 11.0748L47.4919 11.3847H47.8224V11.1548ZM51.3477 11.1548V11.3847H51.6602L51.5673 11.0864L51.3477 11.1548ZM54.5726 13.5078C54.6915 13.8969 54.7993 14.2167 54.8961 14.4656C54.9908 14.7091 55.0813 14.9019 55.1695 15.0239L55.5423 14.7547C55.491 14.6836 55.4178 14.5383 55.3247 14.2989C55.2337 14.0648 55.1296 13.7569 55.0124 13.3734L54.5726 13.5078ZM55.1695 15.0239C55.5066 15.4908 56.0577 15.6988 56.7563 15.6988V15.2388C56.1458 15.2388 55.7632 15.0605 55.5423 14.7547L55.1695 15.0239ZM56.5264 15.4688V16H56.9863V15.4688H56.5264ZM56.7563 15.77H51.1062V16.23H56.7563V15.77ZM51.3362 16V15.4688H50.8763V16H51.3362ZM51.1062 15.6988C51.3602 15.6988 51.58 15.685 51.7626 15.6556C51.9417 15.6267 52.1026 15.58 52.2261 15.5028L51.9824 15.1128C51.9342 15.1429 51.8429 15.1768 51.6894 15.2015C51.5393 15.2257 51.3459 15.2388 51.1062 15.2388V15.6988ZM52.2292 15.5009C52.4901 15.3321 52.6079 15.0632 52.6079 14.7444H52.148C52.148 14.9407 52.0834 15.0475 51.9793 15.1148L52.2292 15.5009ZM52.6079 14.7444C52.6079 14.5747 52.5967 14.4242 52.5712 14.2969L52.1202 14.3871C52.1377 14.4744 52.148 14.5922 52.148 14.7444H52.6079ZM52.5712 14.2969C52.5463 14.1725 52.4878 13.9822 52.402 13.7352L51.9676 13.8863C52.0534 14.1331 52.1022 14.2969 52.1202 14.3871L52.5712 14.2969ZM52.4047 13.7437L51.8252 11.8442L51.3853 11.9784L51.9648 13.8779L52.4047 13.7437ZM51.6053 11.6814H47.5005V12.1413H51.6053V11.6814ZM47.2834 11.8355L46.9293 12.8496L47.3635 13.0013L47.7176 11.9871L47.2834 11.8355ZM46.9302 12.8469C46.8423 13.0887 46.7652 13.3309 46.6991 13.5732L47.1429 13.6942C47.2055 13.4644 47.2787 13.2343 47.3625 13.004L46.9302 12.8469ZM46.6991 13.5732C46.6307 13.824 46.5945 14.0594 46.5945 14.2776H47.0544C47.0544 14.1095 47.0825 13.9156 47.1429 13.6942L46.6991 13.5732ZM46.5945 14.2776C46.5945 14.7273 46.7614 15.0958 47.1073 15.3486L47.3786 14.9773C47.1665 14.8223 47.0544 14.6005 47.0544 14.2776H46.5945ZM47.1106 15.351C47.4437 15.5854 47.8347 15.6988 48.2732 15.6988V15.2388C47.9175 15.2388 47.6217 15.1483 47.3753 14.9749L47.1106 15.351ZM48.0432 15.4688V16H48.5031V15.4688H48.0432ZM48.2732 15.77H43.9913V16.23H48.2732V15.77ZM44.2213 16V15.4688H43.7614V16H44.2213ZM44.0545 15.6899C44.7636 15.4873 45.3195 15.1546 45.7001 14.6788L45.341 14.3915C45.0348 14.7743 44.5711 15.064 43.9281 15.2477L44.0545 15.6899ZM45.6988 14.6804C45.961 14.3587 46.2346 13.7904 46.525 13.0052L46.0936 12.8457C45.8045 13.6273 45.5523 14.1321 45.3423 14.3899L45.6988 14.6804ZM46.5246 13.0062L49.6636 4.63568L49.2329 4.4742L46.094 12.8447L46.5246 13.0062ZM49.5187 4.77384L51.8689 4.01727L51.728 3.57948L49.3778 4.33604L49.5187 4.77384ZM51.5788 3.86657L54.5729 13.5088L55.0121 13.3724L52.018 3.73018L51.5788 3.86657ZM49.5224 5.90765L47.6068 11.0748L48.0381 11.2347L49.9536 6.06752L49.5224 5.90765ZM47.8224 11.3847H51.3477V10.9248H47.8224V11.3847ZM51.5673 11.0864L49.9575 5.91919L49.5184 6.05598L51.1282 11.2232L51.5673 11.0864ZM57.6003 15.4688V15.2388H57.3703V15.4688H57.6003ZM58.8076 15.1629L58.9619 15.3335L58.9623 15.3331L58.8076 15.1629ZM58.8237 5.07005L58.6651 5.23657L58.6651 5.23657L58.8237 5.07005ZM57.6003 4.74811H57.3703V4.97806H57.6003V4.74811ZM57.6003 4.2169V3.98694H57.3703V4.2169H57.6003ZM63.3631 4.2169H63.593V3.98694H63.3631V4.2169ZM63.3631 4.74811V4.97806H63.593V4.74811H63.3631ZM62.1397 5.07005L62.294 5.24057L62.2944 5.2402L62.1397 5.07005ZM61.9465 15.0342L62.1379 14.9066L62.1356 14.9033L61.9465 15.0342ZM65.7294 14.5513L65.8497 14.7472L65.8502 14.7469L65.7294 14.5513ZM67.8864 12.6357L67.9718 12.4222L67.8189 12.361L67.7118 12.486L67.8864 12.6357ZM68.2888 12.7967L68.5084 12.8651L68.5716 12.6621L68.3742 12.5832L68.2888 12.7967ZM67.2908 16V16.23H67.46L67.5103 16.0684L67.2908 16ZM57.6003 16H57.3703V16.23H57.6003V16ZM57.6003 15.6988C58.1915 15.6988 58.6697 15.5978 58.9619 15.3335L58.6533 14.9924C58.4948 15.1359 58.1681 15.2388 57.6003 15.2388V15.6988ZM58.9623 15.3331C59.2727 15.051 59.3917 14.5742 59.3917 13.9879H58.9318C58.9318 14.539 58.8147 14.8457 58.6529 14.9928L58.9623 15.3331ZM59.3917 13.9879V6.22904H58.9318V13.9879H59.3917ZM59.3917 6.22904C59.3917 5.65407 59.2783 5.18542 58.9823 4.90353L58.6651 5.23657C58.8198 5.38394 58.9318 5.68794 58.9318 6.22904H59.3917ZM58.9823 4.90353C58.6893 4.62451 58.2028 4.51815 57.6003 4.51815V4.97806C58.1783 4.97806 58.5073 5.08633 58.6651 5.23657L58.9823 4.90353ZM57.8303 4.74811V4.2169H57.3703V4.74811H57.8303ZM57.6003 4.44686H63.3631V3.98694H57.6003V4.44686ZM63.1331 4.2169V4.74811H63.593V4.2169H63.1331ZM63.3631 4.51815C62.7683 4.51815 62.2866 4.62572 61.985 4.89989L62.2944 5.2402C62.465 5.08512 62.7989 4.97806 63.3631 4.97806V4.51815ZM61.9854 4.89953C61.6837 5.17252 61.5717 5.64684 61.5717 6.22904H62.0316C62.0316 5.67371 62.145 5.37537 62.294 5.24057L61.9854 4.89953ZM61.5717 6.22904V13.9879H62.0316V6.22904H61.5717ZM61.5717 13.9879C61.5717 14.2721 61.5839 14.5105 61.6101 14.6995C61.635 14.8791 61.6764 15.0479 61.7575 15.1651L62.1356 14.9033C62.1201 14.8809 62.0891 14.8056 62.0657 14.6364C62.0435 14.4767 62.0316 14.2617 62.0316 13.9879H61.5717ZM61.7552 15.1617C61.8684 15.3315 62.0466 15.4405 62.2551 15.5068C62.463 15.573 62.7169 15.6022 63.0089 15.6022V15.1423C62.743 15.1423 62.5408 15.1151 62.3945 15.0686C62.2489 15.0222 62.1749 14.9622 62.1379 14.9066L61.7552 15.1617ZM63.0089 15.6022C63.9798 15.6022 64.9278 15.3137 65.8497 14.7472L65.609 14.3553C64.7496 14.8834 63.8839 15.1423 63.0089 15.1423V15.6022ZM65.8502 14.7469C66.6047 14.2809 67.3412 13.6251 68.061 12.7854L67.7118 12.486C67.015 13.299 66.3135 13.9202 65.6085 14.3556L65.8502 14.7469ZM67.801 12.8492L68.2034 13.0102L68.3742 12.5832L67.9718 12.4222L67.801 12.8492ZM68.0693 12.7283L67.0712 15.9316L67.5103 16.0684L68.5084 12.8651L68.0693 12.7283ZM67.2908 15.77H57.6003V16.23H67.2908V15.77ZM57.8303 16V15.4688H57.3703V16H57.8303ZM68.9795 15.4688V15.2388H68.7495V15.4688H68.9795ZM70.1868 15.1629L70.341 15.3335L70.3414 15.3331L70.1868 15.1629ZM70.2029 5.07005L70.0443 5.23657L70.0443 5.23657L70.2029 5.07005ZM68.9795 4.74811H68.7495V4.97806H68.9795V4.74811ZM68.9795 4.2169V3.98694H68.7495V4.2169H68.9795ZM78.686 4.2169L78.904 4.14348L78.8512 3.98694H78.686V4.2169ZM79.7002 7.22706L79.7891 7.43913L79.9864 7.35639L79.9181 7.15365L79.7002 7.22706ZM79.2012 7.43633L79.0191 7.57679L79.1271 7.71676L79.2901 7.64839L79.2012 7.43633ZM77.189 5.61735L77.0696 5.81388L77.0699 5.81405L77.189 5.61735ZM73.3579 5.23102L73.5474 5.36131L73.5492 5.35858L73.3579 5.23102ZM73.1808 9.65773H72.9509V9.88769H73.1808V9.65773ZM75.3378 9.31969L75.4562 9.51689L75.4584 9.51554L75.3378 9.31969ZM76.3681 7.75827V7.52831H76.2037L76.1505 7.68376L76.3681 7.75827ZM76.9958 7.75827H77.2258V7.52831H76.9958V7.75827ZM76.9958 12.4103V12.6403H77.2258V12.4103H76.9958ZM76.3681 12.4103L76.1463 12.4711L76.1926 12.6403H76.3681V12.4103ZM75.4183 10.8328L75.2907 11.0242L75.2942 11.0264L75.4183 10.8328ZM73.1808 10.4143V10.1843H72.9509V10.4143H73.1808ZM73.3579 14.9376L73.5557 14.8203L73.5541 14.8177L73.3579 14.9376ZM77.2212 14.6317L77.112 14.4294L77.1118 14.4295L77.2212 14.6317ZM79.4587 12.7806L79.5646 12.5764L79.4022 12.4922L79.2836 12.6315L79.4587 12.7806ZM79.8933 13.0059L80.1066 13.0919L80.1848 12.898L79.9992 12.8018L79.8933 13.0059ZM78.686 16V16.23H78.8413L78.8993 16.086L78.686 16ZM68.9795 16H68.7495V16.23H68.9795V16ZM68.9795 15.6988C69.5707 15.6988 70.0488 15.5978 70.341 15.3335L70.0325 14.9924C69.8739 15.1359 69.5473 15.2388 68.9795 15.2388V15.6988ZM70.3414 15.3331C70.6518 15.051 70.7709 14.5742 70.7709 13.9879H70.3109C70.3109 14.539 70.1939 14.8457 70.0321 14.9928L70.3414 15.3331ZM70.7709 13.9879V6.22904H70.3109V13.9879H70.7709ZM70.7709 6.22904C70.7709 5.65407 70.6574 5.18542 70.3614 4.90353L70.0443 5.23657C70.199 5.38394 70.3109 5.68794 70.3109 6.22904H70.7709ZM70.3614 4.90353C70.0685 4.62451 69.5819 4.51815 68.9795 4.51815V4.97806C69.5575 4.97806 69.8865 5.08633 70.0443 5.23657L70.3614 4.90353ZM69.2094 4.74811V4.2169H68.7495V4.74811H69.2094ZM68.9795 4.44686H78.686V3.98694H68.9795V4.44686ZM78.4681 4.29032L79.4822 7.30048L79.9181 7.15365L78.904 4.14348L78.4681 4.29032ZM79.6112 7.015L79.1122 7.22426L79.2901 7.64839L79.7891 7.43913L79.6112 7.015ZM79.3832 7.29587C78.7875 6.52367 78.0959 5.89774 77.3081 5.42065L77.0699 5.81405C77.806 6.25986 78.4558 6.84658 79.0191 7.57679L79.3832 7.29587ZM77.3084 5.42082C76.4298 4.887 75.5305 4.61473 74.6135 4.61473V5.07465C75.4349 5.07465 76.2526 5.31748 77.0696 5.81388L77.3084 5.42082ZM74.6135 4.61473C74.2685 4.61473 73.9723 4.64782 73.7329 4.72148C73.4937 4.7951 73.2919 4.9155 73.1666 5.10346L73.5492 5.35858C73.5956 5.28899 73.6889 5.21622 73.8682 5.16106C74.0473 5.10595 74.2931 5.07465 74.6135 5.07465V4.61473ZM73.1684 5.10074C73.0769 5.23388 73.0275 5.43065 72.9973 5.65041C72.9658 5.8796 72.9509 6.1702 72.9509 6.51879H73.4108C73.4108 6.18056 73.4254 5.91313 73.4529 5.71306C73.4817 5.50357 73.5209 5.39986 73.5474 5.3613L73.1684 5.10074ZM72.9509 6.51879V9.65773H73.4108V6.51879H72.9509ZM73.1808 9.88769H73.5028V9.42777H73.1808V9.88769ZM73.5028 9.88769C74.3598 9.88769 75.0246 9.77579 75.4562 9.51688L75.2195 9.1225C74.8998 9.31431 74.3413 9.42777 73.5028 9.42777V9.88769ZM75.4584 9.51554C75.9444 9.21643 76.3109 8.63497 76.5856 7.83277L76.1505 7.68376C75.8887 8.44836 75.5683 8.90784 75.2173 9.12384L75.4584 9.51554ZM76.3681 7.98823H76.9958V7.52831H76.3681V7.98823ZM76.7659 7.75827V12.4103H77.2258V7.75827H76.7659ZM76.9958 12.1804H76.3681V12.6403H76.9958V12.1804ZM76.5898 12.3496C76.3691 11.544 76.0312 10.9525 75.5424 10.6392L75.2942 11.0264C75.6425 11.2497 75.9377 11.7099 76.1463 12.4711L76.5898 12.3496ZM75.5459 10.6415C75.072 10.3256 74.3903 10.1843 73.535 10.1843V10.6443C74.3537 10.6443 74.9276 10.782 75.2908 11.0242L75.5459 10.6415ZM73.535 10.1843H73.1808V10.6443H73.535V10.1843ZM72.9509 10.4143V13.8108H73.4108V10.4143H72.9509ZM72.9509 13.8108C72.9509 14.0968 72.9659 14.343 72.9979 14.5467C73.0294 14.7468 73.0797 14.9234 73.1617 15.0575L73.5541 14.8177C73.518 14.7586 73.4798 14.6508 73.4523 14.4753C73.4252 14.3034 73.4108 14.0828 73.4108 13.8108H72.9509ZM73.1601 15.0548C73.3938 15.4492 73.8533 15.6022 74.4203 15.6022V15.1423C73.9142 15.1423 73.6654 15.0055 73.5557 14.8204L73.1601 15.0548ZM74.4203 15.6022C75.4169 15.6022 76.3878 15.3442 77.3307 14.834L77.1118 14.4295C76.2302 14.9066 75.3339 15.1423 74.4203 15.1423V15.6022ZM77.3304 14.8341C78.174 14.379 78.9415 13.7428 79.6338 12.9296L79.2836 12.6315C78.6237 13.4066 77.8996 14.0045 77.112 14.4294L77.3304 14.8341ZM79.3529 12.9847L79.7875 13.2101L79.9992 12.8018L79.5646 12.5764L79.3529 12.9847ZM79.6801 12.9199L78.4728 15.914L78.8993 16.086L80.1066 13.0919L79.6801 12.9199ZM78.686 15.77H68.9795V16.23H78.686V15.77ZM69.2094 16V15.4688H68.7495V16H69.2094ZM86.0912 4.2169H86.3212V3.98694H86.0912V4.2169ZM86.0912 4.74811V4.97806H86.3212V4.74811H86.0912ZM85.2864 4.87688L85.4098 5.07089L85.4159 5.06706L85.4216 5.06286L85.2864 4.87688ZM85.1898 5.58516L84.9804 5.68031L84.9881 5.69724L84.9985 5.71272L85.1898 5.58516ZM85.383 5.891L85.5792 5.77108L85.578 5.76912L85.383 5.891ZM85.56 6.18075L85.3636 6.3008L85.3697 6.30987L85.56 6.18075ZM87.0892 8.43435L86.899 8.56347L87.0796 8.82972L87.273 8.57257L87.0892 8.43435ZM88.5541 6.4866L88.7379 6.62481L88.7381 6.62457L88.5541 6.4866ZM88.8599 6.03588L89.0586 6.15175L89.0589 6.15109L88.8599 6.03588ZM88.8116 4.98956L88.9613 4.81495L88.9589 4.8129L88.8116 4.98956ZM87.8619 4.74811H87.632V4.97806H87.8619V4.74811ZM87.8619 4.2169V3.98694H87.632V4.2169H87.8619ZM92.0955 4.2169H92.3254V3.98694H92.0955V4.2169ZM92.0955 4.74811V4.97806H92.3254V4.74811H92.0955ZM90.7755 5.10224L90.6506 4.90916L90.6479 4.9109L90.7755 5.10224ZM89.7936 6.11636L89.6101 5.97773L89.6098 5.97807L89.7936 6.11636ZM87.54 9.11043L87.3562 8.97214L87.2561 9.10515L87.3512 9.24179L87.54 9.11043ZM90.5984 13.5049L90.4097 13.6363L90.4098 13.6364L90.5984 13.5049ZM91.5482 14.7927L91.3796 14.9492L91.3816 14.9513L91.5482 14.7927ZM92.9325 15.4688H93.1625V15.2388H92.9325V15.4688ZM92.9325 16V16.23H93.1625V16H92.9325ZM87.2341 16H87.0042V16.23H87.2341V16ZM87.2341 15.4688L87.2094 15.2402L87.0042 15.2624V15.4688H87.2341ZM88.0551 15.2756L87.9468 15.0726L87.941 15.076L88.0551 15.2756ZM88.1517 14.4386L88.3521 14.3258L88.3513 14.3245L88.1517 14.4386ZM87.878 14.0201L88.0678 13.8902L88.0675 13.8898L87.878 14.0201ZM85.9303 11.187L86.1198 11.0567L85.9421 10.7983L85.749 11.0454L85.9303 11.187ZM84.3205 13.2474L84.1393 13.1058L84.1356 13.1107L84.3205 13.2474ZM83.902 13.843L83.7084 13.7185L83.7034 13.7271L83.902 13.843ZM84.0952 15.2273L83.9802 15.4266L83.9844 15.4288L84.0952 15.2273ZM84.9483 15.4688H85.1783V15.265L84.976 15.2405L84.9483 15.4688ZM84.9483 16V16.23H85.1783V16H84.9483ZM80.586 16H80.356V16.23H80.586V16ZM80.586 15.4688L80.5434 15.2428L80.356 15.2782V15.4688H80.586ZM82.083 14.7766L82.2294 14.954L82.2297 14.9538L82.083 14.7766ZM83.2098 13.521L83.393 13.6601L83.3939 13.6589L83.2098 13.521ZM85.4634 10.5109L85.6475 10.6487L85.7461 10.5171L85.6534 10.3812L85.4634 10.5109ZM82.4533 6.10027L82.6433 5.97059L82.6398 5.96578L82.4533 6.10027ZM81.906 5.3598L81.7356 5.51466L81.7434 5.5224L81.906 5.3598ZM80.586 4.74811H80.356V4.95701L80.564 4.97701L80.586 4.74811ZM80.586 4.2169V3.98694H80.356V4.2169H80.586ZM85.8613 4.2169V4.74811H86.3212V4.2169H85.8613ZM86.0912 4.51815C85.8755 4.51815 85.6905 4.52911 85.5398 4.55323C85.3956 4.57629 85.255 4.61536 85.1511 4.69091L85.4216 5.06286C85.4358 5.05256 85.4883 5.02723 85.6124 5.00737C85.73 4.98856 85.8884 4.97806 86.0912 4.97806V4.51815ZM85.1629 4.68288C84.9629 4.81017 84.8793 5.01734 84.8793 5.24712H85.3393C85.3393 5.13349 85.3738 5.09384 85.4098 5.07089L85.1629 4.68288ZM84.8793 5.24712C84.8793 5.39336 84.916 5.53849 84.9804 5.68031L85.3991 5.49C85.3563 5.39573 85.3393 5.3155 85.3393 5.24712H84.8793ZM84.9985 5.71272C85.0175 5.74135 85.0797 5.83961 85.1879 6.01288L85.578 5.76912C85.4716 5.59899 85.405 5.49335 85.3811 5.4576L84.9985 5.71272ZM85.1867 6.01091L85.3638 6.30066L85.7562 6.06084L85.5792 5.77109L85.1867 6.01091ZM85.3697 6.30987L86.899 8.56347L87.2795 8.30523L85.7503 6.05163L85.3697 6.30987ZM87.273 8.57257L88.7379 6.62481L88.3703 6.34838L86.9055 8.29613L87.273 8.57257ZM88.7381 6.62457C88.8701 6.44858 88.9775 6.29068 89.0586 6.15175L88.6613 5.92001C88.5921 6.03863 88.4957 6.18121 88.3701 6.34862L88.7381 6.62457ZM89.0589 6.15109C89.1849 5.93346 89.267 5.71974 89.267 5.52077H88.807C88.807 5.60081 88.771 5.7305 88.6609 5.92066L89.0589 6.15109ZM89.267 5.52077C89.267 5.23868 89.1699 4.99377 88.9613 4.81496L88.662 5.16416C88.7539 5.24291 88.807 5.35214 88.807 5.52077H89.267ZM88.9589 4.8129C88.7031 4.59977 88.3193 4.51815 87.8619 4.51815V4.97806C88.2845 4.97806 88.5339 5.05741 88.6644 5.16622L88.9589 4.8129ZM88.0919 4.74811V4.2169H87.632V4.74811H88.0919ZM87.8619 4.44686H92.0955V3.98694H87.8619V4.44686ZM91.8655 4.2169V4.74811H92.3254V4.2169H91.8655ZM92.0955 4.51815C91.5444 4.51815 91.0591 4.64484 90.6506 4.90918L90.9004 5.29531C91.2216 5.08746 91.6163 4.97806 92.0955 4.97806V4.51815ZM90.6479 4.9109C90.3265 5.12519 89.9808 5.48709 89.6101 5.97773L89.977 6.25499C90.3361 5.77981 90.645 5.46562 90.903 5.29358L90.6479 4.9109ZM89.6098 5.97807L87.3562 8.97214L87.7237 9.24872L89.9773 6.25465L89.6098 5.97807ZM87.3512 9.24179L90.4097 13.6363L90.7872 13.3736L87.7287 8.97907L87.3512 9.24179ZM90.4098 13.6364C90.8996 14.3393 91.2266 14.7844 91.3796 14.9492L91.7167 14.6362C91.5907 14.5006 91.2845 14.0871 90.7871 13.3735L90.4098 13.6364ZM91.3816 14.9513C91.8423 15.435 92.3604 15.6988 92.9325 15.6988V15.2388C92.5173 15.2388 92.1125 15.0519 91.7147 14.6341L91.3816 14.9513ZM92.7025 15.4688V16H93.1625V15.4688H92.7025ZM92.9325 15.77H87.2341V16.23H92.9325V15.77ZM87.4641 16V15.4688H87.0042V16H87.4641ZM87.2588 15.6974C87.6567 15.6544 87.9735 15.5871 88.1692 15.4753L87.941 15.076C87.8362 15.1359 87.6057 15.1973 87.2094 15.2402L87.2588 15.6974ZM88.1633 15.4785C88.2721 15.4205 88.3657 15.3413 88.4312 15.2365C88.4971 15.131 88.5265 15.0125 88.5265 14.8893H88.0666C88.0666 14.9378 88.0557 14.9695 88.0412 14.9928C88.0262 15.0168 87.999 15.0449 87.9469 15.0727L88.1633 15.4785ZM88.5265 14.8893C88.5265 14.7055 88.4586 14.5152 88.3521 14.3258L87.9512 14.5513C88.0379 14.7053 88.0666 14.8156 88.0666 14.8893H88.5265ZM88.3513 14.3245C88.3031 14.24 88.2066 14.0931 88.0678 13.8902L87.6882 14.1499C87.8284 14.3548 87.9144 14.4869 87.952 14.5527L88.3513 14.3245ZM88.0675 13.8898L86.1198 11.0567L85.7408 11.3172L87.6885 14.1503L88.0675 13.8898ZM85.749 11.0454L84.1393 13.1058L84.5018 13.389L86.1115 11.3285L85.749 11.0454ZM84.1356 13.1107C83.952 13.3591 83.8091 13.5623 83.7086 13.7186L84.0955 13.9673C84.1881 13.8232 84.3242 13.6293 84.5055 13.3841L84.1356 13.1107ZM83.7034 13.7271C83.5415 14.0046 83.4467 14.276 83.4467 14.5352H83.9066C83.9066 14.3866 83.9621 14.1965 84.1006 13.9589L83.7034 13.7271ZM83.4467 14.5352C83.4467 14.9248 83.6363 15.2281 83.9803 15.4265L84.2101 15.0282C83.996 14.9046 83.9066 14.7465 83.9066 14.5352H83.4467ZM83.9844 15.4288C84.2337 15.5659 84.5495 15.6521 84.9207 15.6971L84.976 15.2405C84.6389 15.1996 84.386 15.1248 84.206 15.0258L83.9844 15.4288ZM84.7184 15.4688V16H85.1783V15.4688H84.7184ZM84.9483 15.77H80.586V16.23H84.9483V15.77ZM80.816 16V15.4688H80.356V16H80.816ZM80.6286 15.6948C81.2339 15.5806 81.769 15.3338 82.2294 14.954L81.9367 14.5992C81.5386 14.9277 81.0756 15.1424 80.5434 15.2428L80.6286 15.6948ZM82.2297 14.9538C82.5612 14.6794 82.9494 14.2444 83.393 13.6601L83.0267 13.382C82.5903 13.9567 82.2273 14.3587 81.9364 14.5995L82.2297 14.9538ZM83.3939 13.6589L85.6475 10.6487L85.2794 10.3731L83.0258 13.3832L83.3939 13.6589ZM85.6534 10.3812L82.6432 5.97063L82.2633 6.2299L85.2735 10.6405L85.6534 10.3812ZM82.6398 5.96578C82.4733 5.73483 82.3439 5.55689 82.2519 5.43237C82.2059 5.37021 82.1687 5.32057 82.1406 5.28398C82.1169 5.25327 82.0895 5.21813 82.0686 5.19719L81.7434 5.5224C81.7385 5.51756 81.746 5.52535 81.776 5.56439C81.8015 5.59756 81.8367 5.64449 81.882 5.70574C81.9724 5.82805 82.1006 6.00425 82.2667 6.23475L82.6398 5.96578ZM82.0761 5.20511C81.7093 4.80157 81.2126 4.57733 80.608 4.5192L80.564 4.97701C81.0755 5.02619 81.4588 5.20975 81.7358 5.51448L82.0761 5.20511ZM80.816 4.74811V4.2169H80.356V4.74811H80.816ZM80.586 4.44686H86.0912V3.98694H80.586V4.44686ZM103.488 13.4406L103.707 13.3734L103.707 13.3724L103.488 13.4406ZM104.051 14.8893L104.237 14.7547L104.237 14.7547L104.051 14.8893ZM105.451 15.4688H105.681V15.2388H105.451V15.4688ZM105.451 16V16.23H105.681V16H105.451ZM99.8013 16H99.5714V16.23H99.8013V16ZM99.8013 15.4688V15.2388H99.5714V15.4688H99.8013ZM100.799 15.3078L100.921 15.5029L100.924 15.5009L100.799 15.3078ZM101.041 14.342L101.266 14.2969L101.266 14.2969L101.041 14.342ZM100.88 13.8108L100.66 13.8779L100.663 13.8863L100.88 13.8108ZM100.3 11.9113L100.52 11.8442L100.471 11.6814H100.3V11.9113ZM96.1956 11.9113V11.6814H96.0323L95.9785 11.8355L96.1956 11.9113ZM95.8414 12.9254L96.0576 13.004L96.0585 13.0013L95.8414 12.9254ZM95.6161 13.6337L95.8379 13.6942L95.8379 13.6942L95.6161 13.6337ZM95.938 15.1629L95.8023 15.3486L95.8057 15.351L95.938 15.1629ZM96.9682 15.4688H97.1982V15.2388H96.9682V15.4688ZM96.9682 16V16.23H97.1982V16H96.9682ZM92.6864 16H92.4564V16.23H92.6864V16ZM92.6864 15.4688L92.6232 15.2477L92.4564 15.2953V15.4688H92.6864ZM94.2156 14.5352L94.0373 14.3899L94.0361 14.3915L94.2156 14.5352ZM95.0044 12.9254L94.7891 12.8447L94.7887 12.8457L95.0044 12.9254ZM98.1433 4.55494L98.0729 4.33604L97.967 4.37011L97.928 4.4742L98.1433 4.55494ZM100.494 3.79838L100.713 3.73018L100.644 3.50828L100.423 3.57948L100.494 3.79838ZM98.4331 5.98758L98.6526 5.91919L98.452 5.27507L98.2174 5.90765L98.4331 5.98758ZM96.5175 11.1548L96.3019 11.0748L96.187 11.3847H96.5175V11.1548ZM100.043 11.1548V11.3847H100.355L100.262 11.0864L100.043 11.1548ZM103.268 13.5078C103.387 13.8969 103.494 14.2167 103.591 14.4656C103.686 14.7091 103.776 14.9019 103.865 15.0239L104.237 14.7547C104.186 14.6836 104.113 14.5383 104.02 14.2989C103.929 14.0648 103.825 13.7569 103.707 13.3734L103.268 13.5078ZM103.865 15.0239C104.202 15.4908 104.753 15.6988 105.451 15.6988V15.2388C104.841 15.2388 104.458 15.0605 104.237 14.7547L103.865 15.0239ZM105.221 15.4688V16H105.681V15.4688H105.221ZM105.451 15.77H99.8013V16.23H105.451V15.77ZM100.031 16V15.4688H99.5714V16H100.031ZM99.8013 15.6988C100.055 15.6988 100.275 15.685 100.458 15.6556C100.637 15.6267 100.798 15.58 100.921 15.5028L100.677 15.1128C100.629 15.1429 100.538 15.1768 100.384 15.2015C100.234 15.2257 100.041 15.2388 99.8013 15.2388V15.6988ZM100.924 15.5009C101.185 15.3321 101.303 15.0632 101.303 14.7444H100.843C100.843 14.9407 100.778 15.0475 100.674 15.1148L100.924 15.5009ZM101.303 14.7444C101.303 14.5747 101.292 14.4242 101.266 14.2969L100.815 14.3871C100.833 14.4744 100.843 14.5922 100.843 14.7444H101.303ZM101.266 14.2969C101.241 14.1725 101.183 13.9822 101.097 13.7352L100.663 13.8863C100.748 14.1331 100.797 14.2969 100.815 14.3871L101.266 14.2969ZM101.1 13.7437L100.52 11.8442L100.08 11.9784L100.66 13.8779L101.1 13.7437ZM100.3 11.6814H96.1956V12.1413H100.3V11.6814ZM95.9785 11.8355L95.6243 12.8496L96.0585 13.0013L96.4127 11.9871L95.9785 11.8355ZM95.6253 12.8469C95.5374 13.0887 95.4603 13.3309 95.3942 13.5732L95.8379 13.6942C95.9006 13.4644 95.9738 13.2343 96.0575 13.004L95.6253 12.8469ZM95.3942 13.5732C95.3258 13.824 95.2895 14.0594 95.2895 14.2776H95.7494C95.7494 14.1095 95.7776 13.9156 95.8379 13.6942L95.3942 13.5732ZM95.2895 14.2776C95.2895 14.7273 95.4564 15.0958 95.8023 15.3486L96.0737 14.9773C95.8616 14.8223 95.7494 14.6005 95.7494 14.2776H95.2895ZM95.8057 15.351C96.1388 15.5854 96.5298 15.6988 96.9682 15.6988V15.2388C96.6126 15.2388 96.3168 15.1483 96.0704 14.9749L95.8057 15.351ZM96.7383 15.4688V16H97.1982V15.4688H96.7383ZM96.9682 15.77H92.6864V16.23H96.9682V15.77ZM92.9164 16V15.4688H92.4564V16H92.9164ZM92.7496 15.6899C93.4587 15.4873 94.0146 15.1546 94.3952 14.6788L94.0361 14.3915C93.7298 14.7743 93.2662 15.064 92.6232 15.2477L92.7496 15.6899ZM94.3939 14.6804C94.656 14.3587 94.9297 13.7904 95.2201 13.0052L94.7887 12.8457C94.4996 13.6273 94.2474 14.1321 94.0373 14.3899L94.3939 14.6804ZM95.2197 13.0062L98.3586 4.63568L97.928 4.4742L94.7891 12.8447L95.2197 13.0062ZM98.2138 4.77384L100.564 4.01727L100.423 3.57948L98.0729 4.33604L98.2138 4.77384ZM100.274 3.86657L103.268 13.5088L103.707 13.3724L100.713 3.73018L100.274 3.86657ZM98.2174 5.90765L96.3019 11.0748L96.7331 11.2347L98.6487 6.06752L98.2174 5.90765ZM96.5175 11.3847H100.043V10.9248H96.5175V11.3847ZM100.262 11.0864L98.6526 5.91919L98.2135 6.05598L99.8232 11.2232L100.262 11.0864ZM115.954 12.4103L115.765 12.5414L116.184 13.1454V12.4103H115.954ZM115.696 5.44028L115.894 5.32305L115.894 5.32276L115.696 5.44028ZM114.231 4.74811H114.001V4.95894L114.211 4.9772L114.231 4.74811ZM114.231 4.2169V3.98694H114.001V4.2169H114.231ZM118.465 4.2169H118.695V3.98694H118.465V4.2169ZM118.465 4.74811L118.503 4.97494L118.695 4.94291V4.74811H118.465ZM117.064 5.45638L116.87 5.33292L116.87 5.33385L117.064 5.45638ZM116.791 16V16.23H117.021V16H116.791ZM115.326 16L115.138 16.1327L115.207 16.23H115.326V16ZM108.855 6.84073L109.043 6.70804L108.625 6.11672V6.84073H108.855ZM109.177 14.7766L108.992 14.9135L109.177 14.7766ZM110.738 15.4688H110.968V15.2817L110.785 15.2436L110.738 15.4688ZM110.738 16V16.23H110.968V16H110.738ZM106.183 16H105.953V16.23H106.183V16ZM106.183 15.4688L106.148 15.2415L105.953 15.2717V15.4688H106.183ZM107.664 14.8571L107.483 14.715L107.482 14.7159L107.664 14.8571ZM108.018 5.85881H108.248V5.77814L108.197 5.71515L108.018 5.85881ZM106.183 4.74811H105.953V4.93663L106.138 4.9736L106.183 4.74811ZM106.183 4.2169V3.98694H105.953V4.2169H106.183ZM110.271 4.2169L110.46 4.08585L110.392 3.98694H110.271V4.2169ZM116.184 12.4103V7.0339H115.724V12.4103H116.184ZM116.184 7.0339C116.184 6.64009 116.162 6.30101 116.116 6.01931C116.071 5.74024 116.001 5.50306 115.894 5.32305L115.498 5.55752C115.563 5.66725 115.622 5.84055 115.662 6.09269C115.703 6.34219 115.724 6.65504 115.724 7.0339H116.184ZM115.894 5.32276C115.601 4.83096 115.02 4.58585 114.251 4.51901L114.211 4.9772C114.924 5.03914 115.319 5.25548 115.498 5.55781L115.894 5.32276ZM114.461 4.74811V4.2169H114.001V4.74811H114.461ZM114.231 4.44686H118.465V3.98694H114.231V4.44686ZM118.235 4.2169V4.74811H118.695V4.2169H118.235ZM118.427 4.52128C117.698 4.64281 117.149 4.89513 116.87 5.33292L117.258 5.57984C117.431 5.30935 117.815 5.0895 118.503 4.97494L118.427 4.52128ZM116.87 5.33385C116.649 5.68415 116.561 6.26997 116.561 7.0339H117.021C117.021 6.27396 117.115 5.8081 117.259 5.5789L116.87 5.33385ZM116.561 7.0339V16H117.021V7.0339H116.561ZM116.791 15.77H115.326V16.23H116.791V15.77ZM115.514 15.8673L109.043 6.70804L108.667 6.97342L115.138 16.1327L115.514 15.8673ZM108.625 6.84073V13.022H109.085V6.84073H108.625ZM108.625 13.022C108.625 13.47 108.652 13.8512 108.709 14.1622C108.766 14.4694 108.854 14.7278 108.992 14.9135L109.362 14.6397C109.284 14.5357 109.212 14.3568 109.162 14.0792C109.111 13.8052 109.085 13.454 109.085 13.022H108.625ZM108.992 14.9135C109.133 15.1037 109.357 15.2542 109.635 15.3772C109.915 15.5015 110.269 15.6062 110.691 15.6939L110.785 15.2436C110.381 15.1597 110.061 15.0632 109.821 14.9567C109.578 14.849 109.435 14.7393 109.362 14.6397L108.992 14.9135ZM110.508 15.4688V16H110.968V15.4688H110.508ZM110.738 15.77H106.183V16.23H110.738V15.77ZM106.413 16V15.4688H105.953V16H106.413ZM106.218 15.696C106.61 15.6353 106.943 15.5511 107.212 15.4399C107.48 15.3292 107.699 15.1858 107.845 14.9983L107.482 14.7159C107.403 14.8181 107.262 14.9216 107.037 15.0148C106.812 15.1074 106.518 15.1842 106.148 15.2415L106.218 15.696ZM107.844 14.9992C108.131 14.6339 108.248 14.0338 108.248 13.2635H107.788C107.788 14.017 107.668 14.4794 107.483 14.715L107.844 14.9992ZM108.248 13.2635V5.85881H107.788V13.2635H108.248ZM108.197 5.71515C107.691 5.08205 107.031 4.68331 106.228 4.52261L106.138 4.9736C106.837 5.11338 107.4 5.4551 107.838 6.00246L108.197 5.71515ZM106.413 4.74811V4.2169H105.953V4.74811H106.413ZM106.183 4.44686H110.271V3.98694H106.183V4.44686ZM110.082 4.34795L115.765 12.5414L116.143 12.2793L110.46 4.08585L110.082 4.34795ZM124.805 15.0342L124.62 15.1702L124.622 15.1735L124.805 15.0342ZM128.556 14.2615L128.372 14.1228L128.372 14.1231L128.556 14.2615ZM128.54 5.84271L128.714 5.69247L128.713 5.69168L128.54 5.84271ZM124.789 5.19883L124.595 5.07536L124.594 5.07695L124.789 5.19883ZM120.427 15.4688V15.2388H120.197V15.4688H120.427ZM121.634 15.1629L121.788 15.3335L121.789 15.3331L121.634 15.1629ZM121.65 5.07005L121.491 5.23657L121.491 5.23657L121.65 5.07005ZM120.427 4.74811H120.197V4.97806H120.427V4.74811ZM120.427 4.2169V3.98694H120.197V4.2169H120.427ZM127.477 4.31348L127.445 4.54113L127.445 4.54113L127.477 4.31348ZM128.765 4.65152L128.85 4.43772L128.849 4.43763L128.765 4.65152ZM131.341 6.67976L131.53 6.54983L131.53 6.54967L131.341 6.67976ZM131.341 13.6015L131.151 13.4706L131.151 13.4714L131.341 13.6015ZM128.845 15.5815L128.763 15.3669L128.761 15.3676L128.845 15.5815ZM127.558 15.9195L127.586 16.1478L127.59 16.1472L127.558 15.9195ZM120.427 16H120.197V16.23H120.427V16ZM124.398 13.8108C124.398 14.1435 124.413 14.4213 124.445 14.6405C124.475 14.85 124.525 15.0411 124.62 15.1702L124.991 14.8982C124.967 14.8663 124.929 14.7729 124.9 14.5747C124.873 14.3861 124.858 14.1327 124.858 13.8108H124.398ZM124.622 15.1735C124.751 15.3423 124.952 15.4464 125.183 15.5096C125.417 15.5733 125.706 15.6022 126.045 15.6022V15.1423C125.728 15.1423 125.484 15.1148 125.304 15.0658C125.123 15.0163 125.031 14.9514 124.988 14.8948L124.622 15.1735ZM126.045 15.6022C127.216 15.6022 128.129 15.21 128.739 14.3999L128.372 14.1231C127.867 14.7939 127.105 15.1423 126.045 15.1423V15.6022ZM128.739 14.4002C129.452 13.4579 129.784 11.9124 129.784 9.8187H129.324C129.324 11.8888 128.99 13.3052 128.372 14.1228L128.739 14.4002ZM129.784 9.8187C129.784 7.93593 129.445 6.54013 128.714 5.69247L128.366 5.99295C128.986 6.71208 129.324 7.96694 129.324 9.8187H129.784ZM128.713 5.69168C128.076 4.95986 127.111 4.61473 125.867 4.61473V5.07465C127.028 5.07465 127.845 5.39487 128.366 5.99374L128.713 5.69168ZM125.867 4.61473C125.57 4.61473 125.311 4.64531 125.1 4.71474C124.887 4.78451 124.707 4.89888 124.595 5.07537L124.983 5.32229C125.021 5.26268 125.096 5.19998 125.243 5.15171C125.391 5.10309 125.596 5.07465 125.867 5.07465V4.61473ZM124.594 5.07695C124.514 5.20489 124.469 5.38246 124.441 5.58125C124.412 5.78638 124.398 6.0409 124.398 6.34172H124.858C124.858 6.05232 124.871 5.82123 124.896 5.6454C124.922 5.46322 124.957 5.36446 124.984 5.3207L124.594 5.07695ZM124.398 6.34172V13.8108H124.858V6.34172H124.398ZM120.427 15.6988C121.018 15.6988 121.496 15.5978 121.788 15.3335L121.48 14.9924C121.321 15.1359 120.994 15.2388 120.427 15.2388V15.6988ZM121.789 15.3331C122.099 15.051 122.218 14.5742 122.218 13.9879H121.758C121.758 14.539 121.641 14.8457 121.479 14.9928L121.789 15.3331ZM122.218 13.9879V6.22904H121.758V13.9879H122.218ZM122.218 6.22904C122.218 5.65407 122.105 5.18542 121.809 4.90353L121.491 5.23657C121.646 5.38394 121.758 5.68794 121.758 6.22904H122.218ZM121.809 4.90353C121.516 4.62451 121.029 4.51815 120.427 4.51815V4.97806C121.005 4.97806 121.334 5.08633 121.491 5.23657L121.809 4.90353ZM120.657 4.74811V4.2169H120.197V4.74811H120.657ZM120.427 4.44686H126.028V3.98694H120.427V4.44686ZM126.028 4.44686C126.534 4.44686 127.006 4.47847 127.445 4.54113L127.51 4.08584C127.047 4.01972 126.553 3.98694 126.028 3.98694V4.44686ZM127.445 4.54113C127.878 4.60308 128.29 4.71129 128.681 4.86542L128.849 4.43763C128.424 4.26981 127.978 4.15267 127.51 4.08584L127.445 4.54113ZM128.68 4.86533C129.724 5.27848 130.545 5.9263 131.151 6.80985L131.53 6.54967C130.87 5.58742 129.974 4.88308 128.85 4.43772L128.68 4.86533ZM131.151 6.80969C131.797 7.75297 132.125 8.89176 132.125 10.2372H132.585C132.585 8.81399 132.236 7.58113 131.53 6.54983L131.151 6.80969ZM132.125 10.2372C132.125 11.46 131.799 12.5351 131.151 13.4706L131.53 13.7324C132.234 12.7148 132.585 11.547 132.585 10.2372H132.125ZM131.151 13.4714C130.544 14.3566 129.749 14.9868 128.763 15.3669L128.928 15.796C130.002 15.382 130.871 14.6923 131.53 13.7316L131.151 13.4714ZM128.761 15.3676C128.371 15.5217 127.959 15.6299 127.525 15.6919L127.59 16.1472C128.058 16.0803 128.505 15.9632 128.93 15.7954L128.761 15.3676ZM127.53 15.6912C127.101 15.7435 126.601 15.77 126.028 15.77V16.23C126.615 16.23 127.134 16.2028 127.586 16.1478L127.53 15.6912ZM126.028 15.77H120.427V16.23H126.028V15.77ZM120.657 16V15.4688H120.197V16H120.657ZM141.59 9.01385L141.733 9.19416L141.735 9.19232L141.59 9.01385ZM138.773 5.11834L138.585 4.98562L138.58 4.99341L138.773 5.11834ZM138.596 9.62554H138.366V9.8555H138.596V9.62554ZM143.957 13.2796L143.751 13.3825L143.755 13.3905L143.957 13.2796ZM144.923 14.7766L144.753 14.932L144.754 14.9332L144.923 14.7766ZM146.484 15.4688H146.714V15.2388H146.484V15.4688ZM146.484 16V16.23H146.714V16H146.484ZM142.508 16L142.312 16.1205L142.38 16.23H142.508V16ZM142.154 15.34L141.948 15.4429L141.948 15.4429L142.154 15.34ZM141.816 14.6478L142.024 14.5506L142.024 14.5497L141.816 14.6478ZM140.866 12.6357L140.658 12.7328L140.658 12.7339L140.866 12.6357ZM139.627 10.7362L139.478 10.9118L139.479 10.9129L139.627 10.7362ZM138.596 10.3821V10.1521H138.366V10.3821H138.596ZM140.158 15.4688H140.388V15.2388H140.158V15.4688ZM140.158 16V16.23H140.388V16H140.158ZM134.395 16H134.165V16.23H134.395V16ZM134.395 15.4688V15.2388H134.165V15.4688H134.395ZM135.602 15.1629L135.757 15.3335L135.757 15.3331L135.602 15.1629ZM135.618 5.07005L135.46 5.23657L135.46 5.23657L135.618 5.07005ZM134.395 4.74811H134.165V4.97806H134.395V4.74811ZM134.395 4.2169V3.98694H134.165V4.2169H134.395ZM144.118 5.05395L143.974 5.23352L143.974 5.23352L144.118 5.05395ZM144.198 9.20701L144.055 9.02744L144.054 9.02779L144.198 9.20701ZM142.057 10.1085L142.016 9.88224L141.447 9.98625L141.932 10.3013L142.057 10.1085ZM142.653 10.7523L142.458 10.8749L142.459 10.8767L142.653 10.7523ZM143.088 11.5411L143.293 11.4382L143.292 11.4359L143.088 11.5411ZM138.902 9.8555C140.189 9.8555 141.154 9.65287 141.733 9.19414L141.448 8.83355C140.997 9.19041 140.169 9.39558 138.902 9.39558V9.8555ZM141.735 9.19232C142.321 8.71636 142.593 7.98469 142.593 7.04999H142.133C142.133 7.89672 141.89 8.47428 141.445 8.83537L141.735 9.19232ZM142.593 7.04999C142.593 6.22598 142.361 5.58121 141.845 5.17852L141.562 5.54108C141.926 5.8252 142.133 6.30723 142.133 7.04999H142.593ZM141.845 5.17852C141.346 4.78966 140.621 4.61473 139.707 4.61473V5.07465C140.575 5.07465 141.18 5.24312 141.562 5.54108L141.845 5.17852ZM139.707 4.61473C139.449 4.61473 139.223 4.63834 139.039 4.69243C138.855 4.74624 138.691 4.83663 138.586 4.98573L138.961 5.25095C138.985 5.21761 139.041 5.17118 139.168 5.13378C139.295 5.09665 139.472 5.07465 139.707 5.07465V4.61473ZM138.58 4.99341C138.497 5.12228 138.446 5.29015 138.414 5.47837C138.382 5.66973 138.366 5.89949 138.366 6.16465H138.826C138.826 5.91471 138.841 5.71253 138.867 5.55511C138.895 5.39457 138.932 5.29683 138.967 5.24326L138.58 4.99341ZM138.366 6.16465V9.62554H138.826V6.16465H138.366ZM138.596 9.8555H138.902V9.39558H138.596V9.8555ZM143.755 13.3905C144.163 14.1308 144.496 14.652 144.753 14.932L145.092 14.6212C144.877 14.3861 144.566 13.9093 144.158 13.1687L143.755 13.3905ZM144.754 14.9332C145.225 15.4399 145.806 15.6988 146.484 15.6988V15.2388C145.938 15.2388 145.478 15.0363 145.091 14.62L144.754 14.9332ZM146.254 15.4688V16H146.714V15.4688H146.254ZM146.484 15.77H142.508V16.23H146.484V15.77ZM142.704 15.8795C142.624 15.749 142.509 15.5365 142.36 15.2372L141.948 15.4429C142.099 15.7445 142.221 15.972 142.312 16.1205L142.704 15.8795ZM142.36 15.2372C142.21 14.9372 142.098 14.7087 142.024 14.5506L141.607 14.7451C141.684 14.9089 141.798 15.1418 141.948 15.4429L142.36 15.2372ZM142.024 14.5497L141.074 12.5375L140.658 12.7339L141.608 14.746L142.024 14.5497ZM141.075 12.5386C140.632 11.5895 140.202 10.9161 139.774 10.5596L139.479 10.9129C139.824 11.2002 140.22 11.7931 140.658 12.7328L141.075 12.5386ZM139.775 10.5607C139.45 10.2854 139.052 10.1521 138.596 10.1521V10.6121C138.957 10.6121 139.245 10.7149 139.478 10.9118L139.775 10.5607ZM138.366 10.3821V13.9879H138.826V10.3821H138.366ZM138.366 13.9879C138.366 14.5628 138.48 15.0315 138.776 15.3134L139.093 14.9803C138.938 14.833 138.826 14.529 138.826 13.9879H138.366ZM138.776 15.3134C139.069 15.5924 139.555 15.6988 140.158 15.6988V15.2388C139.58 15.2388 139.251 15.1306 139.093 14.9803L138.776 15.3134ZM139.928 15.4688V16H140.388V15.4688H139.928ZM140.158 15.77H134.395V16.23H140.158V15.77ZM134.625 16V15.4688H134.165V16H134.625ZM134.395 15.6988C134.986 15.6988 135.464 15.5978 135.757 15.3335L135.448 14.9924C135.29 15.1359 134.963 15.2388 134.395 15.2388V15.6988ZM135.757 15.3331C136.067 15.051 136.186 14.5742 136.186 13.9879H135.727C135.727 14.539 135.609 14.8457 135.448 14.9928L135.757 15.3331ZM136.186 13.9879V6.22904H135.727V13.9879H136.186ZM136.186 6.22904C136.186 5.65407 136.073 5.18542 135.777 4.90353L135.46 5.23657C135.615 5.38394 135.727 5.68794 135.727 6.22904H136.186ZM135.777 4.90353C135.484 4.62451 134.998 4.51815 134.395 4.51815V4.97806C134.973 4.97806 135.302 5.08633 135.46 5.23657L135.777 4.90353ZM134.625 4.74811V4.2169H134.165V4.74811H134.625ZM134.395 4.44686H141.317V3.98694H134.395V4.44686ZM141.317 4.44686C142.451 4.44686 143.328 4.717 143.974 5.23352L144.261 4.87438C143.512 4.27484 142.522 3.98694 141.317 3.98694V4.44686ZM143.974 5.23352C144.618 5.74868 144.934 6.40207 144.934 7.21097H145.394C145.394 6.25991 145.013 5.47529 144.261 4.87438L143.974 5.23352ZM144.934 7.21097C144.934 7.9558 144.645 8.55541 144.055 9.02744L144.342 9.38658C145.04 8.82839 145.394 8.09731 145.394 7.21097H144.934ZM144.054 9.02779C143.544 9.43814 142.868 9.72631 142.016 9.88224L142.099 10.3347C143.006 10.1686 143.758 9.85586 144.342 9.38624L144.054 9.02779ZM141.932 10.3013C142.111 10.4176 142.288 10.6042 142.458 10.8749L142.847 10.6298C142.653 10.3209 142.433 10.0783 142.183 9.91564L141.932 10.3013ZM142.459 10.8767C142.549 11.0167 142.69 11.2708 142.883 11.6463L143.292 11.4359C143.099 11.0602 142.949 10.7885 142.846 10.628L142.459 10.8767ZM142.882 11.6439L143.751 13.3824L144.162 13.1767L143.293 11.4383L142.882 11.6439ZM148.749 5.07005L148.59 5.23657L148.59 5.23657L148.749 5.07005ZM147.525 4.74811H147.295V4.97806H147.525V4.74811ZM147.525 4.2169V3.98694H147.295V4.2169H147.525ZM153.288 4.2169H153.518V3.98694H153.288V4.2169ZM153.288 4.74811V4.97806H153.518V4.74811H153.288ZM152.065 5.07005L152.219 5.24057L152.219 5.2402L152.065 5.07005ZM153.288 15.4688H153.518V15.2388H153.288V15.4688ZM153.288 16V16.23H153.518V16H153.288ZM147.525 16H147.295V16.23H147.525V16ZM147.525 15.4688V15.2388H147.295V15.4688H147.525ZM148.732 15.1629L148.887 15.3335L148.887 15.3331L148.732 15.1629ZM149.317 6.22904C149.317 5.65407 149.203 5.18542 148.907 4.90353L148.59 5.23657C148.745 5.38394 148.857 5.68794 148.857 6.22904H149.317ZM148.907 4.90353C148.614 4.62451 148.128 4.51815 147.525 4.51815V4.97806C148.103 4.97806 148.432 5.08633 148.59 5.23657L148.907 4.90353ZM147.755 4.74811V4.2169H147.295V4.74811H147.755ZM147.525 4.44686H153.288V3.98694H147.525V4.44686ZM153.058 4.2169V4.74811H153.518V4.2169H153.058ZM153.288 4.51815C152.693 4.51815 152.211 4.62572 151.91 4.89989L152.219 5.2402C152.39 5.08512 152.724 4.97806 153.288 4.97806V4.51815ZM151.91 4.89953C151.609 5.17252 151.497 5.64684 151.497 6.22904H151.956C151.956 5.67371 152.07 5.37537 152.219 5.24057L151.91 4.89953ZM151.497 6.22904V13.9879H151.956V6.22904H151.497ZM151.497 13.9879C151.497 14.5628 151.61 15.0315 151.906 15.3134L152.223 14.9803C152.068 14.833 151.956 14.529 151.956 13.9879H151.497ZM151.906 15.3134C152.199 15.5924 152.685 15.6988 153.288 15.6988V15.2388C152.71 15.2388 152.381 15.1306 152.223 14.9803L151.906 15.3134ZM153.058 15.4688V16H153.518V15.4688H153.058ZM153.288 15.77H147.525V16.23H153.288V15.77ZM147.755 16V15.4688H147.295V16H147.755ZM147.525 15.6988C148.116 15.6988 148.595 15.5978 148.887 15.3335L148.578 14.9924C148.42 15.1359 148.093 15.2388 147.525 15.2388V15.6988ZM148.887 15.3331C149.198 15.051 149.317 14.5742 149.317 13.9879H148.857C148.857 14.539 148.74 14.8457 148.578 14.9928L148.887 15.3331ZM149.317 13.9879V6.22904H148.857V13.9879H149.317ZM164.962 13.4406L165.182 13.3734L165.181 13.3724L164.962 13.4406ZM165.525 14.8893L165.711 14.7547L165.711 14.7547L165.525 14.8893ZM166.925 15.4688H167.155V15.2388H166.925V15.4688ZM166.925 16V16.23H167.155V16H166.925ZM161.275 16H161.045V16.23H161.275V16ZM161.275 15.4688V15.2388H161.045V15.4688H161.275ZM162.273 15.3078L162.395 15.5029L162.398 15.5009L162.273 15.3078ZM162.515 14.342L162.74 14.2969L162.74 14.2969L162.515 14.342ZM162.354 13.8108L162.134 13.8779L162.137 13.8863L162.354 13.8108ZM161.774 11.9113L161.994 11.8442L161.945 11.6814H161.774V11.9113ZM157.67 11.9113V11.6814H157.506L157.453 11.8355L157.67 11.9113ZM157.315 12.9254L157.532 13.004L157.533 13.0013L157.315 12.9254ZM157.09 13.6337L157.312 13.6942L157.312 13.6942L157.09 13.6337ZM157.412 15.1629L157.276 15.3486L157.28 15.351L157.412 15.1629ZM158.442 15.4688H158.672V15.2388H158.442V15.4688ZM158.442 16V16.23H158.672V16H158.442ZM154.16 16H153.93V16.23H154.16V16ZM154.16 15.4688L154.097 15.2477L153.93 15.2953V15.4688H154.16ZM155.69 14.5352L155.511 14.3899L155.51 14.3915L155.69 14.5352ZM156.478 12.9254L156.263 12.8447L156.263 12.8457L156.478 12.9254ZM159.617 4.55494L159.547 4.33604L159.441 4.37011L159.402 4.4742L159.617 4.55494ZM161.968 3.79838L162.187 3.73018L162.118 3.50828L161.897 3.57948L161.968 3.79838ZM159.907 5.98758L160.127 5.91919L159.926 5.27507L159.692 5.90765L159.907 5.98758ZM157.992 11.1548L157.776 11.0748L157.661 11.3847H157.992V11.1548ZM161.517 11.1548V11.3847H161.829L161.736 11.0864L161.517 11.1548ZM164.742 13.5078C164.861 13.8969 164.968 14.2167 165.065 14.4656C165.16 14.7091 165.25 14.9019 165.339 15.0239L165.711 14.7547C165.66 14.6836 165.587 14.5383 165.494 14.2989C165.403 14.0648 165.299 13.7569 165.182 13.3734L164.742 13.5078ZM165.339 15.0239C165.676 15.4908 166.227 15.6988 166.925 15.6988V15.2388C166.315 15.2388 165.932 15.0605 165.711 14.7547L165.339 15.0239ZM166.696 15.4688V16H167.155V15.4688H166.696ZM166.925 15.77H161.275V16.23H166.925V15.77ZM161.505 16V15.4688H161.045V16H161.505ZM161.275 15.6988C161.529 15.6988 161.749 15.685 161.932 15.6556C162.111 15.6267 162.272 15.58 162.395 15.5028L162.152 15.1128C162.103 15.1429 162.012 15.1768 161.859 15.2015C161.708 15.2257 161.515 15.2388 161.275 15.2388V15.6988ZM162.398 15.5009C162.659 15.3321 162.777 15.0632 162.777 14.7444H162.317C162.317 14.9407 162.252 15.0475 162.148 15.1148L162.398 15.5009ZM162.777 14.7444C162.777 14.5747 162.766 14.4242 162.74 14.2969L162.289 14.3871C162.307 14.4744 162.317 14.5922 162.317 14.7444H162.777ZM162.74 14.2969C162.715 14.1725 162.657 13.9822 162.571 13.7352L162.137 13.8863C162.223 14.1331 162.271 14.2969 162.289 14.3871L162.74 14.2969ZM162.574 13.7437L161.994 11.8442L161.554 11.9784L162.134 13.8779L162.574 13.7437ZM161.774 11.6814H157.67V12.1413H161.774V11.6814ZM157.453 11.8355L157.098 12.8496L157.533 13.0013L157.887 11.9871L157.453 11.8355ZM157.099 12.8469C157.011 13.0887 156.934 13.3309 156.868 13.5732L157.312 13.6942C157.375 13.4644 157.448 13.2343 157.532 13.004L157.099 12.8469ZM156.868 13.5732C156.8 13.824 156.764 14.0594 156.764 14.2776H157.223C157.223 14.1095 157.252 13.9156 157.312 13.6942L156.868 13.5732ZM156.764 14.2776C156.764 14.7273 156.93 15.0958 157.276 15.3486L157.548 14.9773C157.336 14.8223 157.223 14.6005 157.223 14.2776H156.764ZM157.28 15.351C157.613 15.5854 158.004 15.6988 158.442 15.6988V15.2388C158.087 15.2388 157.791 15.1483 157.544 14.9749L157.28 15.351ZM158.212 15.4688V16H158.672V15.4688H158.212ZM158.442 15.77H154.16V16.23H158.442V15.77ZM154.39 16V15.4688H153.93V16H154.39ZM154.224 15.6899C154.933 15.4873 155.489 15.1546 155.869 14.6788L155.51 14.3915C155.204 14.7743 154.74 15.064 154.097 15.2477L154.224 15.6899ZM155.868 14.6804C156.13 14.3587 156.404 13.7904 156.694 13.0052L156.263 12.8457C155.974 13.6273 155.721 14.1321 155.511 14.3899L155.868 14.6804ZM156.694 13.0062L159.833 4.63568L159.402 4.4742L156.263 12.8447L156.694 13.0062ZM159.688 4.77384L162.038 4.01727L161.897 3.57948L159.547 4.33604L159.688 4.77384ZM161.748 3.86657L164.742 13.5088L165.181 13.3724L162.187 3.73018L161.748 3.86657ZM159.692 5.90765L157.776 11.0748L158.207 11.2347L160.123 6.06752L159.692 5.90765ZM157.992 11.3847H161.517V10.9248H157.992V11.3847ZM161.736 11.0864L160.127 5.91919L159.688 6.05598L161.297 11.2232L161.736 11.0864ZM175.594 5.07005L175.436 5.23657L175.436 5.23657L175.594 5.07005ZM174.371 4.74811H174.141V4.97806H174.371V4.74811ZM174.371 4.2169V3.98694H174.141V4.2169H174.371ZM180.134 4.2169H180.364V3.98694H180.134V4.2169ZM180.134 4.74811V4.97806H180.364V4.74811H180.134ZM178.91 5.07005L179.065 5.24057L179.065 5.2402L178.91 5.07005ZM180.134 15.4688H180.364V15.2388H180.134V15.4688ZM180.134 16V16.23H180.364V16H180.134ZM174.371 16H174.141V16.23H174.371V16ZM174.371 15.4688V15.2388H174.141V15.4688H174.371ZM175.578 15.1629L175.732 15.3335L175.733 15.3331L175.578 15.1629ZM176.162 6.22904C176.162 5.65407 176.049 5.18542 175.753 4.90353L175.436 5.23657C175.59 5.38394 175.702 5.68794 175.702 6.22904H176.162ZM175.753 4.90353C175.46 4.62451 174.973 4.51815 174.371 4.51815V4.97806C174.949 4.97806 175.278 5.08633 175.436 5.23657L175.753 4.90353ZM174.601 4.74811V4.2169H174.141V4.74811H174.601ZM174.371 4.44686H180.134V3.98694H174.371V4.44686ZM179.904 4.2169V4.74811H180.364V4.2169H179.904ZM180.134 4.51815C179.539 4.51815 179.057 4.62572 178.756 4.89989L179.065 5.2402C179.236 5.08512 179.569 4.97806 180.134 4.97806V4.51815ZM178.756 4.89953C178.454 5.17252 178.342 5.64684 178.342 6.22904H178.802C178.802 5.67371 178.916 5.37537 179.065 5.24057L178.756 4.89953ZM178.342 6.22904V13.9879H178.802V6.22904H178.342ZM178.342 13.9879C178.342 14.5628 178.456 15.0315 178.752 15.3134L179.069 14.9803C178.914 14.833 178.802 14.529 178.802 13.9879H178.342ZM178.752 15.3134C179.045 15.5924 179.531 15.6988 180.134 15.6988V15.2388C179.556 15.2388 179.227 15.1306 179.069 14.9803L178.752 15.3134ZM179.904 15.4688V16H180.364V15.4688H179.904ZM180.134 15.77H174.371V16.23H180.134V15.77ZM174.601 16V15.4688H174.141V16H174.601ZM174.371 15.6988C174.962 15.6988 175.44 15.5978 175.732 15.3335L175.424 14.9924C175.265 15.1359 174.939 15.2388 174.371 15.2388V15.6988ZM175.733 15.3331C176.043 15.051 176.162 14.5742 176.162 13.9879H175.702C175.702 14.539 175.585 14.8457 175.424 14.9928L175.733 15.3331ZM176.162 13.9879V6.22904H175.702V13.9879H176.162ZM191.872 12.4103L191.683 12.5414L192.102 13.1454V12.4103H191.872ZM191.614 5.44028L191.812 5.32305L191.812 5.32276L191.614 5.44028ZM190.149 4.74811H189.919V4.95894L190.129 4.9772L190.149 4.74811ZM190.149 4.2169V3.98694H189.919V4.2169H190.149ZM194.383 4.2169H194.613V3.98694H194.383V4.2169ZM194.383 4.74811L194.421 4.97494L194.613 4.94291V4.74811H194.383ZM192.982 5.45638L192.788 5.33292L192.788 5.33385L192.982 5.45638ZM192.709 16V16.23H192.939V16H192.709ZM191.244 16L191.056 16.1327L191.125 16.23H191.244V16ZM184.773 6.84073L184.961 6.70804L184.543 6.11672V6.84073H184.773ZM185.095 14.7766L184.91 14.9135L185.095 14.7766ZM186.656 15.4688H186.886V15.2817L186.703 15.2436L186.656 15.4688ZM186.656 16V16.23H186.886V16H186.656ZM182.101 16H181.871V16.23H182.101V16ZM182.101 15.4688L182.066 15.2415L181.871 15.2717V15.4688H182.101ZM183.582 14.8571L183.401 14.715L183.4 14.7159L183.582 14.8571ZM183.936 5.85881H184.166V5.77814L184.115 5.71515L183.936 5.85881ZM182.101 4.74811H181.871V4.93663L182.056 4.9736L182.101 4.74811ZM182.101 4.2169V3.98694H181.871V4.2169H182.101ZM186.189 4.2169L186.378 4.08585L186.31 3.98694H186.189V4.2169ZM192.102 12.4103V7.0339H191.642V12.4103H192.102ZM192.102 7.0339C192.102 6.64009 192.08 6.30101 192.034 6.01931C191.989 5.74024 191.919 5.50306 191.812 5.32305L191.416 5.55752C191.481 5.66725 191.54 5.84055 191.58 6.09269C191.621 6.34219 191.642 6.65504 191.642 7.0339H192.102ZM191.812 5.32276C191.519 4.83096 190.938 4.58585 190.169 4.51901L190.129 4.9772C190.842 5.03914 191.237 5.25548 191.417 5.55781L191.812 5.32276ZM190.379 4.74811V4.2169H189.919V4.74811H190.379ZM190.149 4.44686H194.383V3.98694H190.149V4.44686ZM194.153 4.2169V4.74811H194.613V4.2169H194.153ZM194.345 4.52128C193.616 4.64281 193.067 4.89513 192.788 5.33292L193.176 5.57984C193.349 5.30935 193.733 5.0895 194.421 4.97494L194.345 4.52128ZM192.788 5.33385C192.567 5.68415 192.479 6.26997 192.479 7.0339H192.939C192.939 6.27396 193.033 5.8081 193.177 5.5789L192.788 5.33385ZM192.479 7.0339V16H192.939V7.0339H192.479ZM192.709 15.77H191.244V16.23H192.709V15.77ZM191.432 15.8673L184.961 6.70804L184.585 6.97342L191.056 16.1327L191.432 15.8673ZM184.543 6.84073V13.022H185.003V6.84073H184.543ZM184.543 13.022C184.543 13.47 184.57 13.8512 184.627 14.1622C184.684 14.4694 184.773 14.7278 184.91 14.9135L185.28 14.6397C185.203 14.5357 185.131 14.3568 185.08 14.0792C185.029 13.8052 185.003 13.454 185.003 13.022H184.543ZM184.91 14.9135C185.051 15.1037 185.275 15.2542 185.553 15.3772C185.833 15.5015 186.187 15.6062 186.61 15.6939L186.703 15.2436C186.299 15.1597 185.979 15.0632 185.739 14.9567C185.496 14.849 185.353 14.7393 185.28 14.6397L184.91 14.9135ZM186.426 15.4688V16H186.886V15.4688H186.426ZM186.656 15.77H182.101V16.23H186.656V15.77ZM182.331 16V15.4688H181.871V16H182.331ZM182.136 15.696C182.528 15.6353 182.861 15.5511 183.13 15.4399C183.398 15.3292 183.617 15.1858 183.763 14.9983L183.4 14.7159C183.321 14.8181 183.18 14.9216 182.955 15.0148C182.73 15.1074 182.436 15.1842 182.066 15.2415L182.136 15.696ZM183.763 14.9992C184.05 14.6339 184.166 14.0338 184.166 13.2635H183.706C183.706 14.017 183.586 14.4794 183.401 14.715L183.763 14.9992ZM184.166 13.2635V5.85881H183.706V13.2635H184.166ZM184.115 5.71515C183.609 5.08205 182.949 4.68331 182.146 4.52261L182.056 4.9736C182.755 5.11338 183.318 5.4551 183.756 6.00246L184.115 5.71515ZM182.331 4.74811V4.2169H181.871V4.74811H182.331ZM182.101 4.44686H186.189V3.98694H182.101V4.44686ZM186.001 4.34795L191.683 12.5414L192.061 12.2793L186.378 4.08585L186.001 4.34795ZM200.723 15.0342L200.538 15.1702L200.54 15.1735L200.723 15.0342ZM204.474 14.2615L204.29 14.1228L204.29 14.1231L204.474 14.2615ZM204.458 5.84271L204.632 5.69247L204.631 5.69168L204.458 5.84271ZM200.707 5.19883L200.513 5.07536L200.512 5.07695L200.707 5.19883ZM196.345 15.4688V15.2388H196.115V15.4688H196.345ZM197.552 15.1629L197.706 15.3335L197.707 15.3331L197.552 15.1629ZM197.568 5.07005L197.41 5.23657L197.41 5.23657L197.568 5.07005ZM196.345 4.74811H196.115V4.97806H196.345V4.74811ZM196.345 4.2169V3.98694H196.115V4.2169H196.345ZM203.395 4.31348L203.363 4.54113L203.363 4.54113L203.395 4.31348ZM204.683 4.65152L204.768 4.43772L204.767 4.43763L204.683 4.65152ZM207.259 6.67976L207.448 6.54983L207.448 6.54967L207.259 6.67976ZM207.259 13.6015L207.07 13.4706L207.069 13.4714L207.259 13.6015ZM204.764 15.5815L204.681 15.3669L204.679 15.3676L204.764 15.5815ZM203.476 15.9195L203.504 16.1478L203.508 16.1472L203.476 15.9195ZM196.345 16H196.115V16.23H196.345V16ZM200.316 13.8108C200.316 14.1435 200.331 14.4213 200.363 14.6405C200.393 14.85 200.443 15.0411 200.538 15.1702L200.909 14.8982C200.885 14.8663 200.847 14.7729 200.818 14.5747C200.791 14.3861 200.776 14.1327 200.776 13.8108H200.316ZM200.54 15.1735C200.669 15.3423 200.87 15.4464 201.101 15.5096C201.335 15.5733 201.624 15.6022 201.963 15.6022V15.1423C201.646 15.1423 201.402 15.1148 201.222 15.0658C201.041 15.0163 200.949 14.9514 200.906 14.8948L200.54 15.1735ZM201.963 15.6022C203.134 15.6022 204.047 15.21 204.657 14.3999L204.29 14.1231C203.785 14.7939 203.023 15.1423 201.963 15.1423V15.6022ZM204.657 14.4002C205.37 13.4579 205.702 11.9124 205.702 9.8187H205.242C205.242 11.8888 204.909 13.3052 204.29 14.1228L204.657 14.4002ZM205.702 9.8187C205.702 7.93593 205.363 6.54013 204.632 5.69247L204.284 5.99295C204.904 6.71208 205.242 7.96694 205.242 9.8187H205.702ZM204.631 5.69168C203.994 4.95986 203.029 4.61473 201.786 4.61473V5.07465C202.946 5.07465 203.763 5.39487 204.284 5.99374L204.631 5.69168ZM201.786 4.61473C201.488 4.61473 201.229 4.64531 201.018 4.71474C200.805 4.78451 200.625 4.89888 200.513 5.07537L200.901 5.32229C200.939 5.26268 201.014 5.19998 201.161 5.15171C201.309 5.10309 201.515 5.07465 201.786 5.07465V4.61473ZM200.512 5.07695C200.432 5.20489 200.387 5.38246 200.359 5.58125C200.33 5.78638 200.316 6.0409 200.316 6.34172H200.776C200.776 6.05232 200.789 5.82123 200.814 5.6454C200.84 5.46322 200.875 5.36446 200.902 5.3207L200.512 5.07695ZM200.316 6.34172V13.8108H200.776V6.34172H200.316ZM196.345 15.6988C196.936 15.6988 197.414 15.5978 197.706 15.3335L197.398 14.9924C197.239 15.1359 196.913 15.2388 196.345 15.2388V15.6988ZM197.707 15.3331C198.017 15.051 198.136 14.5742 198.136 13.9879H197.676C197.676 14.539 197.559 14.8457 197.397 14.9928L197.707 15.3331ZM198.136 13.9879V6.22904H197.676V13.9879H198.136ZM198.136 6.22904C198.136 5.65407 198.023 5.18542 197.727 4.90353L197.41 5.23657C197.564 5.38394 197.676 5.68794 197.676 6.22904H198.136ZM197.727 4.90353C197.434 4.62451 196.947 4.51815 196.345 4.51815V4.97806C196.923 4.97806 197.252 5.08633 197.41 5.23657L197.727 4.90353ZM196.575 4.74811V4.2169H196.115V4.74811H196.575ZM196.345 4.44686H201.947V3.98694H196.345V4.44686ZM201.947 4.44686C202.452 4.44686 202.924 4.47847 203.363 4.54113L203.428 4.08584C202.965 4.01972 202.471 3.98694 201.947 3.98694V4.44686ZM203.363 4.54113C203.796 4.60308 204.208 4.71129 204.599 4.86542L204.767 4.43763C204.342 4.26981 203.896 4.15267 203.428 4.08584L203.363 4.54113ZM204.598 4.86533C205.642 5.27848 206.463 5.9263 207.069 6.80985L207.448 6.54967C206.788 5.58742 205.892 4.88308 204.768 4.43772L204.598 4.86533ZM207.069 6.80969C207.715 7.75297 208.043 8.89176 208.043 10.2372H208.503C208.503 8.81399 208.155 7.58113 207.448 6.54983L207.069 6.80969ZM208.043 10.2372C208.043 11.46 207.717 12.5351 207.07 13.4706L207.448 13.7324C208.152 12.7148 208.503 11.547 208.503 10.2372H208.043ZM207.069 13.4714C206.462 14.3566 205.667 14.9868 204.681 15.3669L204.846 15.796C205.92 15.382 206.789 14.6923 207.448 13.7316L207.069 13.4714ZM204.679 15.3676C204.289 15.5217 203.877 15.6299 203.443 15.6919L203.508 16.1472C203.976 16.0803 204.423 15.9632 204.848 15.7954L204.679 15.3676ZM203.448 15.6912C203.019 15.7435 202.519 15.77 201.947 15.77V16.23C202.533 16.23 203.052 16.2028 203.504 16.1478L203.448 15.6912ZM201.947 15.77H196.345V16.23H201.947V15.77ZM196.575 16V15.4688H196.115V16H196.575ZM210.49 15.4688V15.2388H210.26V15.4688H210.49ZM211.697 15.1629L211.852 15.3335L211.852 15.3331L211.697 15.1629ZM211.714 5.07005L211.555 5.23657L211.555 5.23657L211.714 5.07005ZM210.49 4.74811H210.26V4.97806H210.49V4.74811ZM210.49 4.2169V3.98694H210.26V4.2169H210.49ZM220.197 4.2169L220.415 4.14348L220.362 3.98694H220.197V4.2169ZM221.211 7.22706L221.3 7.43913L221.497 7.35639L221.429 7.15365L221.211 7.22706ZM220.712 7.43633L220.53 7.57679L220.638 7.71676L220.801 7.64839L220.712 7.43633ZM218.7 5.61735L218.58 5.81388L218.581 5.81405L218.7 5.61735ZM214.869 5.23102L215.058 5.36131L215.06 5.35858L214.869 5.23102ZM214.692 9.65773H214.462V9.88769H214.692V9.65773ZM216.849 9.31969L216.967 9.51689L216.969 9.51554L216.849 9.31969ZM217.879 7.75827V7.52831H217.714L217.661 7.68376L217.879 7.75827ZM218.507 7.75827H218.737V7.52831H218.507V7.75827ZM218.507 12.4103V12.6403H218.737V12.4103H218.507ZM217.879 12.4103L217.657 12.4711L217.703 12.6403H217.879V12.4103ZM216.929 10.8328L216.801 11.0242L216.805 11.0264L216.929 10.8328ZM214.692 10.4143V10.1843H214.462V10.4143H214.692ZM214.869 14.9376L215.066 14.8203L215.065 14.8177L214.869 14.9376ZM218.732 14.6317L218.623 14.4294L218.622 14.4295L218.732 14.6317ZM220.969 12.7806L221.075 12.5764L220.913 12.4922L220.794 12.6315L220.969 12.7806ZM221.404 13.0059L221.617 13.0919L221.696 12.898L221.51 12.8018L221.404 13.0059ZM220.197 16V16.23H220.352L220.41 16.086L220.197 16ZM210.49 16H210.26V16.23H210.49V16ZM210.49 15.6988C211.081 15.6988 211.56 15.5978 211.852 15.3335L211.543 14.9924C211.385 15.1359 211.058 15.2388 210.49 15.2388V15.6988ZM211.852 15.3331C212.163 15.051 212.282 14.5742 212.282 13.9879H211.822C211.822 14.539 211.705 14.8457 211.543 14.9928L211.852 15.3331ZM212.282 13.9879V6.22904H211.822V13.9879H212.282ZM212.282 6.22904C212.282 5.65407 212.168 5.18542 211.872 4.90353L211.555 5.23657C211.71 5.38394 211.822 5.68794 211.822 6.22904H212.282ZM211.872 4.90353C211.579 4.62451 211.093 4.51815 210.49 4.51815V4.97806C211.068 4.97806 211.397 5.08633 211.555 5.23657L211.872 4.90353ZM210.72 4.74811V4.2169H210.26V4.74811H210.72ZM210.49 4.44686H220.197V3.98694H210.49V4.44686ZM219.979 4.29032L220.993 7.30048L221.429 7.15365L220.415 4.14348L219.979 4.29032ZM221.122 7.015L220.623 7.22426L220.801 7.64839L221.3 7.43913L221.122 7.015ZM220.894 7.29587C220.298 6.52367 219.607 5.89774 218.819 5.42065L218.581 5.81405C219.317 6.25986 219.967 6.84658 220.53 7.57679L220.894 7.29587ZM218.819 5.42082C217.941 4.887 217.041 4.61473 216.124 4.61473V5.07465C216.946 5.07465 217.763 5.31748 218.58 5.81388L218.819 5.42082ZM216.124 4.61473C215.779 4.61473 215.483 4.64782 215.244 4.72148C215.004 4.7951 214.803 4.9155 214.677 5.10346L215.06 5.35858C215.106 5.28899 215.2 5.21622 215.379 5.16106C215.558 5.10595 215.804 5.07465 216.124 5.07465V4.61473ZM214.679 5.10074C214.588 5.23388 214.538 5.43065 214.508 5.65041C214.477 5.8796 214.462 6.1702 214.462 6.51879H214.922C214.922 6.18056 214.936 5.91313 214.964 5.71306C214.992 5.50357 215.032 5.39986 215.058 5.3613L214.679 5.10074ZM214.462 6.51879V9.65773H214.922V6.51879H214.462ZM214.692 9.88769H215.014V9.42777H214.692V9.88769ZM215.014 9.88769C215.871 9.88769 216.535 9.77579 216.967 9.51688L216.73 9.1225C216.411 9.31431 215.852 9.42777 215.014 9.42777V9.88769ZM216.969 9.51554C217.455 9.21643 217.822 8.63497 218.096 7.83277L217.661 7.68376C217.399 8.44836 217.079 8.90784 216.728 9.12384L216.969 9.51554ZM217.879 7.98823H218.507V7.52831H217.879V7.98823ZM218.277 7.75827V12.4103H218.737V7.75827H218.277ZM218.507 12.1804H217.879V12.6403H218.507V12.1804ZM218.101 12.3496C217.88 11.544 217.542 10.9525 217.053 10.6392L216.805 11.0264C217.153 11.2497 217.448 11.7099 217.657 12.4711L218.101 12.3496ZM217.057 10.6415C216.583 10.3256 215.901 10.1843 215.046 10.1843V10.6443C215.864 10.6443 216.438 10.782 216.802 11.0242L217.057 10.6415ZM215.046 10.1843H214.692V10.6443H215.046V10.1843ZM214.462 10.4143V13.8108H214.922V10.4143H214.462ZM214.462 13.8108C214.462 14.0968 214.477 14.343 214.509 14.5467C214.54 14.7468 214.59 14.9234 214.672 15.0575L215.065 14.8177C215.029 14.7586 214.991 14.6508 214.963 14.4753C214.936 14.3034 214.922 14.0828 214.922 13.8108H214.462ZM214.671 15.0548C214.905 15.4492 215.364 15.6022 215.931 15.6022V15.1423C215.425 15.1423 215.176 15.0055 215.066 14.8204L214.671 15.0548ZM215.931 15.6022C216.928 15.6022 217.899 15.3442 218.841 14.834L218.622 14.4295C217.741 14.9066 216.845 15.1423 215.931 15.1423V15.6022ZM218.841 14.8341C219.685 14.379 220.452 13.7428 221.145 12.9296L220.794 12.6315C220.134 13.4066 219.41 14.0045 218.623 14.4294L218.841 14.8341ZM220.864 12.9847L221.298 13.2101L221.51 12.8018L221.075 12.5764L220.864 12.9847ZM221.191 12.9199L219.984 15.914L220.41 16.086L221.617 13.0919L221.191 12.9199ZM220.197 15.77H210.49V16.23H220.197V15.77ZM210.72 16V15.4688H210.26V16H210.72ZM227.602 4.2169H227.832V3.98694H227.602V4.2169ZM227.602 4.74811V4.97806H227.832V4.74811H227.602ZM226.797 4.87688L226.921 5.07089L226.927 5.06706L226.932 5.06286L226.797 4.87688ZM226.701 5.58516L226.491 5.68031L226.499 5.69724L226.509 5.71272L226.701 5.58516ZM226.894 5.891L227.09 5.77108L227.089 5.76912L226.894 5.891ZM227.071 6.18075L226.874 6.3008L226.88 6.30987L227.071 6.18075ZM228.6 8.43435L228.41 8.56347L228.59 8.82972L228.784 8.57257L228.6 8.43435ZM230.065 6.4866L230.249 6.62481L230.249 6.62457L230.065 6.4866ZM230.371 6.03588L230.569 6.15175L230.57 6.15109L230.371 6.03588ZM230.322 4.98956L230.472 4.81495L230.47 4.8129L230.322 4.98956ZM229.373 4.74811H229.143V4.97806H229.373V4.74811ZM229.373 4.2169V3.98694H229.143V4.2169H229.373ZM233.606 4.2169H233.836V3.98694H233.606V4.2169ZM233.606 4.74811V4.97806H233.836V4.74811H233.606ZM232.286 5.10224L232.161 4.90916L232.159 4.9109L232.286 5.10224ZM231.304 6.11636L231.121 5.97773L231.121 5.97807L231.304 6.11636ZM229.051 9.11043L228.867 8.97214L228.767 9.10515L228.862 9.24179L229.051 9.11043ZM232.109 13.5049L231.92 13.6363L231.921 13.6364L232.109 13.5049ZM233.059 14.7927L232.89 14.9492L232.892 14.9513L233.059 14.7927ZM234.443 15.4688H234.673V15.2388H234.443V15.4688ZM234.443 16V16.23H234.673V16H234.443ZM228.745 16H228.515V16.23H228.745V16ZM228.745 15.4688L228.72 15.2402L228.515 15.2624V15.4688H228.745ZM229.566 15.2756L229.458 15.0726L229.452 15.076L229.566 15.2756ZM229.662 14.4386L229.863 14.3258L229.862 14.3245L229.662 14.4386ZM229.389 14.0201L229.579 13.8902L229.578 13.8898L229.389 14.0201ZM227.441 11.187L227.63 11.0567L227.453 10.7983L227.26 11.0454L227.441 11.187ZM225.831 13.2474L225.65 13.1058L225.646 13.1107L225.831 13.2474ZM225.413 13.843L225.219 13.7185L225.214 13.7271L225.413 13.843ZM225.606 15.2273L225.491 15.4266L225.495 15.4288L225.606 15.2273ZM226.459 15.4688H226.689V15.265L226.487 15.2405L226.459 15.4688ZM226.459 16V16.23H226.689V16H226.459ZM222.097 16H221.867V16.23H222.097V16ZM222.097 15.4688L222.054 15.2428L221.867 15.2782V15.4688H222.097ZM223.594 14.7766L223.74 14.954L223.74 14.9538L223.594 14.7766ZM224.721 13.521L224.904 13.6601L224.905 13.6589L224.721 13.521ZM226.974 10.5109L227.158 10.6487L227.257 10.5171L227.164 10.3812L226.974 10.5109ZM223.964 6.10027L224.154 5.97059L224.151 5.96578L223.964 6.10027ZM223.417 5.3598L223.246 5.51466L223.254 5.5224L223.417 5.3598ZM222.097 4.74811H221.867V4.95701L222.075 4.97701L222.097 4.74811ZM222.097 4.2169V3.98694H221.867V4.2169H222.097ZM227.372 4.2169V4.74811H227.832V4.2169H227.372ZM227.602 4.51815C227.386 4.51815 227.201 4.52911 227.051 4.55323C226.906 4.57629 226.766 4.61536 226.662 4.69091L226.932 5.06286C226.947 5.05256 226.999 5.02723 227.123 5.00737C227.241 4.98856 227.399 4.97806 227.602 4.97806V4.51815ZM226.674 4.68288C226.474 4.81017 226.39 5.01734 226.39 5.24712H226.85C226.85 5.13349 226.885 5.09384 226.921 5.07089L226.674 4.68288ZM226.39 5.24712C226.39 5.39336 226.427 5.53849 226.491 5.68031L226.91 5.49C226.867 5.39573 226.85 5.3155 226.85 5.24712H226.39ZM226.509 5.71272C226.528 5.74135 226.59 5.83961 226.699 6.01288L227.089 5.76912C226.982 5.59899 226.916 5.49335 226.892 5.4576L226.509 5.71272ZM226.697 6.01091L226.875 6.30066L227.267 6.06084L227.09 5.77109L226.697 6.01091ZM226.88 6.30987L228.41 8.56347L228.79 8.30523L227.261 6.05163L226.88 6.30987ZM228.784 8.57257L230.249 6.62481L229.881 6.34838L228.416 8.29613L228.784 8.57257ZM230.249 6.62457C230.381 6.44858 230.488 6.29068 230.569 6.15175L230.172 5.92001C230.103 6.03863 230.006 6.18121 229.881 6.34862L230.249 6.62457ZM230.57 6.15109C230.696 5.93346 230.778 5.71974 230.778 5.52077H230.318C230.318 5.60081 230.282 5.7305 230.172 5.92066L230.57 6.15109ZM230.778 5.52077C230.778 5.23868 230.681 4.99377 230.472 4.81496L230.173 5.16416C230.265 5.24291 230.318 5.35214 230.318 5.52077H230.778ZM230.47 4.8129C230.214 4.59977 229.83 4.51815 229.373 4.51815V4.97806C229.795 4.97806 230.045 5.05741 230.175 5.16622L230.47 4.8129ZM229.603 4.74811V4.2169H229.143V4.74811H229.603ZM229.373 4.44686H233.606V3.98694H229.373V4.44686ZM233.376 4.2169V4.74811H233.836V4.2169H233.376ZM233.606 4.51815C233.055 4.51815 232.57 4.64484 232.161 4.90918L232.411 5.29531C232.732 5.08746 233.127 4.97806 233.606 4.97806V4.51815ZM232.159 4.9109C231.837 5.12519 231.492 5.48709 231.121 5.97773L231.488 6.25499C231.847 5.77981 232.156 5.46562 232.414 5.29358L232.159 4.9109ZM231.121 5.97807L228.867 8.97214L229.234 9.24872L231.488 6.25465L231.121 5.97807ZM228.862 9.24179L231.92 13.6363L232.298 13.3736L229.239 8.97907L228.862 9.24179ZM231.921 13.6364C232.41 14.3393 232.737 14.7844 232.89 14.9492L233.227 14.6362C233.101 14.5006 232.795 14.0871 232.298 13.3735L231.921 13.6364ZM232.892 14.9513C233.353 15.435 233.871 15.6988 234.443 15.6988V15.2388C234.028 15.2388 233.623 15.0519 233.225 14.6341L232.892 14.9513ZM234.213 15.4688V16H234.673V15.4688H234.213ZM234.443 15.77H228.745V16.23H234.443V15.77ZM228.975 16V15.4688H228.515V16H228.975ZM228.77 15.6974C229.167 15.6544 229.484 15.5871 229.68 15.4753L229.452 15.076C229.347 15.1359 229.116 15.1973 228.72 15.2402L228.77 15.6974ZM229.674 15.4785C229.783 15.4205 229.876 15.3413 229.942 15.2365C230.008 15.131 230.037 15.0125 230.037 14.8893H229.577C229.577 14.9378 229.566 14.9695 229.552 14.9928C229.537 15.0168 229.51 15.0449 229.458 15.0727L229.674 15.4785ZM230.037 14.8893C230.037 14.7055 229.969 14.5152 229.863 14.3258L229.462 14.5513C229.549 14.7053 229.577 14.8156 229.577 14.8893H230.037ZM229.862 14.3245C229.814 14.24 229.717 14.0931 229.579 13.8902L229.199 14.1499C229.339 14.3548 229.425 14.4869 229.463 14.5527L229.862 14.3245ZM229.578 13.8898L227.63 11.0567L227.252 11.3172L229.199 14.1503L229.578 13.8898ZM227.26 11.0454L225.65 13.1058L226.012 13.389L227.622 11.3285L227.26 11.0454ZM225.646 13.1107C225.463 13.3591 225.32 13.5623 225.219 13.7186L225.606 13.9673C225.699 13.8232 225.835 13.6293 226.016 13.3841L225.646 13.1107ZM225.214 13.7271C225.052 14.0046 224.957 14.276 224.957 14.5352H225.417C225.417 14.3866 225.473 14.1965 225.611 13.9589L225.214 13.7271ZM224.957 14.5352C224.957 14.9248 225.147 15.2281 225.491 15.4265L225.721 15.0282C225.507 14.9046 225.417 14.7465 225.417 14.5352H224.957ZM225.495 15.4288C225.744 15.5659 226.06 15.6521 226.431 15.6971L226.487 15.2405C226.15 15.1996 225.897 15.1248 225.717 15.0258L225.495 15.4288ZM226.229 15.4688V16H226.689V15.4688H226.229ZM226.459 15.77H222.097V16.23H226.459V15.77ZM222.327 16V15.4688H221.867V16H222.327ZM222.139 15.6948C222.745 15.5806 223.28 15.3338 223.74 14.954L223.447 14.5992C223.049 14.9277 222.586 15.1424 222.054 15.2428L222.139 15.6948ZM223.74 14.9538C224.072 14.6794 224.46 14.2444 224.904 13.6601L224.537 13.382C224.101 13.9567 223.738 14.3587 223.447 14.5995L223.74 14.9538ZM224.905 13.6589L227.158 10.6487L226.79 10.3731L224.536 13.3832L224.905 13.6589ZM227.164 10.3812L224.154 5.97063L223.774 6.2299L226.784 10.6405L227.164 10.3812ZM224.151 5.96578C223.984 5.73483 223.855 5.55689 223.763 5.43237C223.717 5.37021 223.679 5.32057 223.651 5.28398C223.628 5.25327 223.6 5.21813 223.579 5.19719L223.254 5.5224C223.249 5.51756 223.257 5.52535 223.287 5.56439C223.312 5.59756 223.347 5.64449 223.393 5.70574C223.483 5.82805 223.611 6.00425 223.777 6.23475L224.151 5.96578ZM223.587 5.20511C223.22 4.80157 222.723 4.57733 222.119 4.5192L222.075 4.97701C222.586 5.02619 222.97 5.20975 223.247 5.51448L223.587 5.20511ZM222.327 4.74811V4.2169H221.867V4.74811H222.327ZM222.097 4.44686H227.602V3.98694H222.097V4.44686Z" fill="black"/>
</g>
<defs>
<clipPath id="clip0_191_2020">
<rect width="234" height="19" fill="white"/>
</clipPath>
</defs>
</svg>
